<svg width="512" height="512" viewBox="0 0 512 512" fill="none" xmlns="http://www.w3.org/2000/svg">
<g clip-path="url(#clip0_105_21)">
<path d="M170.583 461C189.453 461 204.75 445.703 204.75 426.833C204.75 407.964 189.453 392.667 170.583 392.667C151.714 392.667 136.417 407.964 136.417 426.833C136.417 445.703 151.714 461 170.583 461Z" fill="#F49320"/>
<path d="M341.417 461C360.286 461 375.583 445.703 375.583 426.833C375.583 407.964 360.286 392.667 341.417 392.667C322.547 392.667 307.25 407.964 307.25 426.833C307.25 445.703 322.547 461 341.417 461Z" fill="#F49320"/>
<path d="M455.619 73.8233C452.415 70.6207 448.071 68.8216 443.541 68.8216C439.011 68.8216 434.666 70.6207 431.463 73.8233L343.33 162.042L316.834 134.384C313.694 131.117 309.385 129.231 304.855 129.142C300.325 129.052 295.945 130.766 292.678 133.905C289.411 137.045 287.526 141.354 287.436 145.884C287.346 150.414 289.06 154.795 292.2 158.061L319.772 186.744C322.71 189.917 326.261 192.462 330.21 194.224C334.16 195.985 338.425 196.928 342.749 196.994H343.313C347.55 197.008 351.749 196.18 355.664 194.559C359.579 192.937 363.133 190.554 366.119 187.547L455.619 97.9792C458.821 94.7756 460.62 90.4311 460.62 85.9012C460.62 81.3714 458.821 77.0269 455.619 73.8233V73.8233Z" fill="#EBC026"/>
<path d="M425.125 205.023C422.916 204.624 420.651 204.664 418.457 205.141C416.264 205.618 414.186 206.523 412.343 207.803C410.499 209.083 408.926 210.714 407.713 212.603C406.5 214.492 405.672 216.601 405.274 218.81L403.088 230.922C400.956 242.749 394.737 253.451 385.516 261.158C376.294 268.864 364.658 273.086 352.64 273.083H143.558L127.499 136.417H238.917C243.447 136.417 247.793 134.617 250.996 131.413C254.2 128.209 256 123.864 256 119.333C256 114.803 254.2 110.457 250.996 107.254C247.793 104.05 243.447 102.25 238.917 102.25H123.468L122.75 96.2367C121.278 83.7761 115.286 72.2885 105.909 63.9509C96.5325 55.6134 84.4231 51.0053 71.8758 51H68.0833C63.5526 51 59.2073 52.7998 56.0036 56.0036C52.7998 59.2073 51 63.5526 51 68.0833C51 72.6141 52.7998 76.9593 56.0036 80.1631C59.2073 83.3668 63.5526 85.1667 68.0833 85.1667H71.8758C76.0601 85.1672 80.0987 86.7034 83.2255 89.4839C86.3524 92.2644 88.35 96.0957 88.8396 100.251L112.346 300.126C114.787 320.913 124.774 340.08 140.413 353.99C156.051 367.9 176.253 375.584 197.182 375.583H375.583C380.114 375.583 384.459 373.784 387.663 370.58C390.867 367.376 392.667 363.031 392.667 358.5C392.667 353.969 390.867 349.624 387.663 346.42C384.459 343.217 380.114 341.417 375.583 341.417H197.182C186.582 341.419 176.242 338.134 167.587 332.015C158.932 325.896 152.387 317.244 148.853 307.25H352.64C372.667 307.251 392.057 300.216 407.424 287.372C422.79 274.529 433.155 256.695 436.707 236.986L438.894 224.857C439.696 220.401 438.695 215.81 436.114 212.091C433.532 208.372 429.58 205.83 425.125 205.023Z" fill="#E59245"/>
<path d="M187.667 230.375C211.254 230.375 230.375 211.254 230.375 187.667C230.375 164.08 211.254 144.958 187.667 144.958C164.08 144.958 144.958 164.08 144.958 187.667C144.958 211.254 164.08 230.375 187.667 230.375Z" fill="#04A54F"/>
<path d="M268.813 256C285.324 256 298.708 242.615 298.708 226.104C298.708 209.593 285.324 196.208 268.813 196.208C252.301 196.208 238.917 209.593 238.917 226.104C238.917 242.615 252.301 256 268.813 256Z" fill="#292F91"/>
<path d="M349.958 264.542C364.111 264.542 375.583 253.069 375.583 238.917C375.583 224.764 364.111 213.292 349.958 213.292C335.806 213.292 324.333 224.764 324.333 238.917C324.333 253.069 335.806 264.542 349.958 264.542Z" fill="#00B1F0"/>
</g>
<defs>
<clipPath id="clip0_105_21">
<rect width="410" height="410" fill="white" transform="translate(51 51)"/>
</clipPath>
</defs>
</svg>
