<svg width="1869" height="1368" viewBox="0 0 1869 1368" fill="none" xmlns="http://www.w3.org/2000/svg">
<path d="M762.339 983.829L886.183 1103.6L660.619 1318.49V1082.5L762.339 983.829Z" fill="#088141"/>
<path d="M1183.21 991.713L1113.78 885.415L1336.29 665.7L669.519 0.451172L0.20166 660.36L660.619 1318.49L665.959 1082.75L243.312 659.597L668.248 248.648L1091.91 659.597L971.119 779.881L1183.21 991.713Z" fill="#2B2E30"/>
<path d="M1104.63 384.698L980.274 265.686L1204.57 49.531L1206.09 285.521L1104.63 384.698Z" fill="#2B2E30"/>
<path d="M684.015 379.358L753.693 485.147L532.706 706.134L1203.3 1367.57L1868.8 703.845L1204.57 49.531L1200.75 285.521L1625.69 706.134L1203.04 1119.37L777.088 710.965L897.118 589.918L684.015 379.358Z" fill="#088141"/>
</svg>
