<svg width="605" height="568" viewBox="0 0 605 568" fill="none" xmlns="http://www.w3.org/2000/svg">
<g clip-path="url(#clip0_1959_25047)">
<path d="M192.112 557.083H330.983V449.974H192.112V557.083Z" fill="#EEEEEE"/>
<path d="M296.191 556.329C295.999 556.329 295.843 532.453 295.843 503.008C295.843 473.553 295.999 449.684 296.191 449.684C296.381 449.684 296.537 473.553 296.537 503.008C296.537 532.453 296.381 556.329 296.191 556.329" fill="#E3E3E2"/>
<path d="M308.563 544.74H319.208V532.705H308.563V544.74Z" fill="#FCFDFD"/>
<path d="M234.477 450.25V473.105H250.252V450.25H234.477Z" fill="#E3E3E2"/>
<path d="M234.477 533.91V556.767H250.252V533.91H234.477Z" fill="#E3E3E2"/>
<path d="M407.859 558.173H582.959V423.12H407.859V558.173Z" fill="#EEEEEE"/>
<path d="M539.088 557.22C538.896 557.22 538.741 527.116 538.741 489.991C538.741 452.852 538.896 422.755 539.088 422.755C539.28 422.755 539.435 452.852 539.435 489.991C539.435 527.116 539.28 557.22 539.088 557.22" fill="#E3E3E2"/>
<path d="M568.112 542.608H554.688V527.433H568.112V542.608Z" fill="#FCFDFD"/>
<path d="M461.276 452.285H481.165V423.468H461.276V452.285Z" fill="#E3E3E2"/>
<path d="M461.276 557.771H481.165V528.953H461.276V557.771Z" fill="#E3E3E2"/>
<path d="M78.0454 427.093C85.1323 423.437 93.4771 422.961 101.345 424.262C105.572 424.96 109.979 426.224 112.855 429.4C115.731 432.574 116.276 438.162 112.974 440.89C111.007 442.514 108.266 442.761 105.716 442.731C99.5568 442.66 92.723 441.574 87.8027 445.281C84.9948 447.394 83.1266 450.91 79.7698 451.949C76.4864 452.968 72.7803 451.029 71.0391 448.065C69.2984 445.102 69.2396 441.397 70.0516 438.056C70.0516 438.056 70.9063 430.776 78.0454 427.093" fill="#EEEEEE"/>
<path d="M61.8088 395.749C66.1421 401.939 74.5645 399.889 78.4703 396.111C82.3751 392.333 84.0255 386.859 85.5281 381.637C88.9609 369.707 92.4229 357.192 89.8697 345.044C89.1063 341.411 87.7489 337.788 85.1959 335.095C82.6437 332.399 78.7193 330.796 75.1307 331.744C70.8844 332.867 68.2448 337.025 66.3375 340.983C60.7297 352.612 57.7615 365.505 57.7172 378.417C57.6959 384.447 58.4068 390.772 61.8088 395.749" fill="#EEEEEE"/>
<path d="M49.9084 404.63C54.6136 399.046 55.5068 390.901 53.4131 383.905C51.3193 376.909 46.5896 370.958 41.138 366.1C34.7464 360.402 27.2339 355.97 19.1568 353.13C15.9787 352.013 12.6255 351.132 9.2724 351.45C5.91822 351.772 2.54062 353.486 0.976036 356.47C-1.33698 360.882 0.880724 366.233 3.27917 370.6C7.50573 378.29 12.338 385.649 17.7161 392.584C22.0437 398.164 27.0011 403.665 33.5959 406.186C40.1901 408.709 47.0412 408.412 50.5364 403.838" fill="#EEEEEE"/>
<path d="M61.5151 489.113C61.5964 489.118 61.7281 488.116 61.9068 486.301C62.1068 484.254 62.3568 481.684 62.6541 478.626C63.012 475.396 63.4839 471.553 64.3807 467.367C65.2751 463.193 66.6751 458.669 68.4729 454.081C70.3344 449.518 72.6047 445.374 75.2579 442.057C77.8921 438.726 80.9557 436.317 83.836 434.926C86.7068 433.508 89.2806 432.933 91.0598 432.677C92.8541 432.493 93.8593 432.352 93.8598 432.272C93.8609 432.192 92.8541 432.178 91.0104 432.228C89.1844 432.349 86.503 432.813 83.4781 434.188C80.4426 435.534 77.1926 437.982 74.4292 441.382C71.6432 444.766 69.2906 449.004 67.3958 453.647C65.5672 458.316 64.1875 462.886 63.3333 467.152C62.4812 471.409 62.0912 475.294 61.8364 478.552C61.5927 481.81 61.5011 484.449 61.4568 486.274C61.4156 488.098 61.4364 489.109 61.5151 489.113" fill="#E3E3E2"/>
<path d="M62.0443 483.209C62.0844 483.206 62.1088 482.757 62.1197 481.902C62.1172 480.922 62.114 479.688 62.1099 478.17C62.1011 474.933 62.1021 470.245 62.276 464.458C62.5625 452.885 63.5593 440.428 65.4839 422.865C67.3068 406.35 69.7531 387.132 72.3355 374.637C72.8891 371.794 73.4469 369.237 73.9713 366.998C74.4724 364.754 74.8989 362.82 75.312 361.253C75.6661 359.778 75.9547 358.578 76.1844 357.626C76.3713 356.793 76.4505 356.349 76.4125 356.338C76.374 356.328 76.2188 356.749 75.9584 357.562C75.674 358.501 75.3156 359.684 74.8751 361.138C74.3948 362.689 73.9027 364.61 73.3401 366.846C72.7541 369.077 72.1391 371.628 71.5328 374.465C68.9781 385.788 66.2735 401.612 64.3303 419.217C62.4011 436.816 61.5317 452.838 61.4552 464.442C61.386 470.245 61.5099 474.941 61.6579 478.182C61.7511 479.698 61.826 480.933 61.8855 481.912C61.9505 482.764 62.0041 483.21 62.0443 483.209" fill="#E3E3E2"/>
<path d="M62.1219 452.302C62.2021 452.298 62.188 450.914 62.0948 448.404C61.9505 445.898 61.6063 442.277 60.9005 437.841C60.1527 433.417 59.1073 428.164 57.4656 422.454C56.7541 419.844 55.0823 413.59 51.0312 404.246C45.6932 391.585 38.4421 381.233 32.1344 374.822C30.6541 373.12 29.0068 371.892 27.6891 370.689C27.0068 370.112 26.4036 369.538 25.7901 369.082C25.1729 368.657 24.5979 368.261 24.0651 367.893C21.9891 366.473 20.826 365.724 20.7833 365.792C20.5969 366.046 25.4339 368.892 31.5407 375.389C37.6235 381.873 44.6719 392.153 49.9656 404.708C52.9177 411.517 54.976 417.592 56.4369 422.748C58.1245 428.401 59.2448 433.602 60.0917 437.983C60.8964 442.373 61.3625 445.957 61.6437 448.441C61.8755 450.926 62.0417 452.305 62.1219 452.302" fill="#E3E3E2"/>
<path d="M30.1807 502.125L33.2776 544.553H87.7833L90.8803 502.125H30.1807Z" fill="#EEEEEE"/>
<path d="M24.9156 485.403V502.125H97.3839V485.403H24.9156Z" fill="#EEEEEE"/>
<path d="M24.9156 542.931V547.565H96.1864V542.931H24.9156Z" fill="#E3E3E2"/>
<path d="M31.6584 555.21L28.3208 547.052H93.5901L89.6959 555.21H31.6584Z" fill="#E3E3E2"/>
<path d="M89.8678 515.993C89.8803 516.001 89.7938 516.135 89.614 516.382C89.3979 516.668 89.1298 517.024 88.7995 517.461C88.0255 518.452 86.9626 519.813 85.6246 521.525L85.4834 521.706L85.3464 521.517C83.3511 518.757 80.6844 515.069 77.5459 510.728H77.9948C75.674 514.013 73.0891 517.673 70.3146 521.604L70.074 521.943L69.8042 521.622C66.9694 518.25 63.8912 514.589 60.6954 510.786L61.2208 510.778C61.0626 510.978 60.8918 511.193 60.7194 511.409C57.8948 514.95 55.161 518.378 52.5751 521.618L52.3036 521.959L52.0531 521.606C49.288 517.693 46.7047 514.038 44.3694 510.733L44.8156 510.754C41.0292 515.069 37.8178 518.728 35.3531 521.537L35.185 521.728L35.0568 521.512C33.8094 519.417 32.8146 517.745 32.0932 516.534C31.7839 515.993 31.5334 515.557 31.3334 515.209C31.1651 514.905 31.0864 514.745 31.1011 514.736C31.1151 514.726 31.2235 514.87 31.4188 515.157C31.6396 515.492 31.9167 515.912 32.2599 516.431C33.0162 517.621 34.0604 519.262 35.3698 521.319L35.0746 521.295C37.4995 518.452 40.6594 514.749 44.3855 510.382L44.6203 510.106L44.8328 510.402C47.1896 513.693 49.7964 517.331 52.5855 521.226L52.064 521.213C54.6432 517.966 57.3703 514.533 60.1891 510.986C60.361 510.771 60.5318 510.556 60.6902 510.357L60.9495 510.031L61.2156 510.35C64.4027 514.159 67.4719 517.829 70.2984 521.209L69.7886 521.228C72.5912 517.319 75.2022 513.677 77.5454 510.407L77.773 510.092L77.9948 510.407C81.0672 514.797 83.6771 518.525 85.6307 521.316L85.3531 521.306C86.7448 519.638 87.8511 518.312 88.6563 517.347C89.0151 516.931 89.3063 516.594 89.5412 516.322C89.7448 516.094 89.8558 515.982 89.8678 515.993" fill="#F8F8F9"/>
<path d="M91.6391 501.845C91.6391 502.033 77.9812 502.185 61.138 502.185C44.2885 502.185 30.6344 502.033 30.6344 501.845C30.6344 501.658 44.2885 501.506 61.138 501.506C77.9812 501.506 91.6391 501.658 91.6391 501.845Z" fill="#F8F8F9"/>
<path d="M474.288 76.3345L463.115 76.3945L462.816 20.7945L473.989 20.7359L474.288 76.3345Z" fill="#E3E3E2"/>
<path d="M395.116 51.5743L366.181 51.729L366.016 21.0357L394.952 20.881L395.116 51.5743" fill="#EEEEEE"/>
<path d="M423.915 51.4197L394.979 51.5757L394.813 20.881L423.751 20.7264L423.915 51.4197" fill="#F8F8F9"/>
<path d="M366.061 29.512C385.291 29.672 404.568 29.56 423.796 29.2466C424.192 29.24 424.189 28.6346 423.792 28.632C404.563 28.5266 385.285 28.6199 366.059 28.9853C365.72 28.9919 365.721 29.5093 366.061 29.512Z" fill="#E3E3E2"/>
<path d="M400.68 76.0756L348.109 76.3569L347.976 51.3436L400.545 51.0623L400.68 76.0756Z" fill="#EEEEEE"/>
<path d="M453.003 75.7959L400.431 76.0786L400.297 51.0639L452.868 50.7826L453.003 75.7959" fill="#F8F8F9"/>
<path d="M348.013 58.3013C382.936 58.696 417.983 58.3427 452.907 57.7827C453.301 57.776 453.3 57.1707 452.903 57.1693C417.976 56.984 382.927 57.0053 348.011 57.7733C347.671 57.7813 347.673 58.2973 348.013 58.3013" fill="#E3E3E2"/>
<path d="M532.029 85.3198H328.353V76.3572H532.029V85.3198" fill="#E3E3E2"/>
<path d="M369.968 111.245H361.699V80.6664H369.968V111.245Z" fill="#E3E3E2"/>
<path d="M493.395 111.245H485.127V80.6664H493.395V111.245Z" fill="#E3E3E2"/>
<path d="M485.304 76.4703L474.131 76.5303L473.72 0.0623092L484.893 0.00228321L485.304 76.4703" fill="#EEEEEE"/>
<path d="M502.685 76.205L485.323 76.2983L484.991 14.3303L502.353 14.237L502.685 76.205Z" fill="#F8F8F9"/>
<path d="M502.236 26.1756C502.236 26.3409 498.349 26.4756 493.555 26.4756C488.759 26.4756 484.873 26.3409 484.873 26.1756C484.873 26.0089 488.759 25.8743 493.555 25.8743C498.349 25.8743 502.236 26.0089 502.236 26.1756Z" fill="#E3E3E2"/>
<path d="M502.236 23.5717C502.236 23.7384 498.349 23.873 493.555 23.873C488.759 23.873 484.873 23.7384 484.873 23.5717C484.873 23.4064 488.759 23.2717 493.555 23.2717C498.349 23.2717 502.236 23.4064 502.236 23.5717Z" fill="#E3E3E2"/>
<path d="M502.236 66.8826C502.236 67.0493 498.349 67.1826 493.555 67.1826C488.759 67.1826 484.873 67.0493 484.873 66.8826C484.873 66.716 488.759 66.5813 493.555 66.5813C498.349 66.5813 502.236 66.716 502.236 66.8826Z" fill="#E3E3E2"/>
<path d="M502.236 64.2787C502.236 64.4454 498.349 64.5801 493.555 64.5801C488.759 64.5801 484.873 64.4454 484.873 64.2787C484.873 64.1134 488.759 63.9787 493.555 63.9787C498.349 63.9787 502.236 64.1134 502.236 64.2787Z" fill="#E3E3E2"/>
<path d="M493.835 58.5986C493.668 58.5986 493.533 52.3466 493.533 44.636C493.533 36.924 493.668 30.672 493.835 30.672C494 30.672 494.136 36.924 494.136 44.636C494.136 52.3466 494 58.5986 493.835 58.5986Z" fill="#E3E3E2"/>
<path d="M521.323 76.228H502.423V29.4547H521.323V76.228Z" fill="#EEEEEE"/>
<path d="M482.355 13.0571C482.355 14.8317 480.917 16.269 479.143 16.269C477.368 16.269 475.931 14.8317 475.931 13.0571C475.931 11.2837 477.368 9.84639 479.143 9.84639C480.917 9.84639 482.355 11.2837 482.355 13.0571Z" fill="#E3E3E2"/>
<path d="M480.136 67.3813H478.149V21.8907H480.136V67.3813Z" fill="#E3E3E2"/>
<path d="M588.973 557.443C588.973 557.635 460.821 557.789 302.777 557.789C144.677 557.789 16.5541 557.635 16.5541 557.443C16.5541 557.251 144.677 557.096 302.777 557.096C460.821 557.096 588.973 557.251 588.973 557.443Z" fill="#3F3D56"/>
<path d="M168.375 68.1076C174.633 75.7023 178.105 85.5436 177.999 95.3849C177.937 101.008 176.901 107.21 180.173 111.785C182.656 115.257 187.184 116.994 189.201 120.757C191.627 125.281 189.559 130.994 191.052 135.906C193.168 142.87 201.323 145.781 206.159 151.22C210.352 155.936 211.904 162.837 210.215 168.918C208.527 174.998 203.677 180.088 197.713 182.15C194.511 183.258 190.851 183.497 187.817 181.985C184.547 180.356 182.527 177.01 180.888 173.744C177.668 167.324 149.439 132.581 147.84 125.578" fill="#3F3D56"/>
<path d="M147.84 59.9169C136.297 58.0596 125.203 65.7236 120.34 76.3543C115.476 86.9876 115.343 99.0783 114.984 110.766C114.625 122.452 113.805 134.652 107.839 144.708C104.053 151.089 98.1896 156.688 97.2697 164.05C96.4469 170.644 99.8593 177.284 98.7265 183.83C97.7401 189.53 93.3964 194.489 93.5683 200.272C93.7755 207.228 100.93 212.469 107.887 212.654C114.843 212.841 121.343 209.196 126.796 204.874C135.645 197.861 142.819 188.746 147.555 178.497" fill="#3F3D56"/>
<path d="M128.849 87.4452C127.325 75.2719 136.131 64.1465 148.492 62.9692C160.143 61.8585 170.497 70.5332 172.244 82.1065C173.775 92.2505 175.089 102.492 175.043 106.211C174.9 117.427 168.337 121.793 165.677 123.104C165.071 123.403 163.396 123.743 162.727 123.839L162.664 123.925L165.155 136.8C166.283 145.236 161.575 152.759 153.153 153.987C144.703 155.219 138.097 148.74 136.808 140.299L128.849 87.4452" fill="#F9AD95"/>
<path d="M169.949 87.0183C169.764 87.281 168.283 86.4876 166.385 86.769C164.485 87.0236 163.235 88.2023 162.995 87.9996C162.879 87.9116 163.041 87.4636 163.584 86.9343C164.116 86.4076 165.073 85.8316 166.256 85.6636C167.44 85.4983 168.499 85.7876 169.135 86.1503C169.784 86.513 170.043 86.901 169.949 87.0183" fill="#3F3D56"/>
<path d="M153.067 91.1213C152.881 91.3827 151.399 90.5894 149.503 90.8707C147.603 91.1254 146.352 92.3054 146.112 92.1027C145.996 92.0147 146.156 91.5667 146.7 91.036C147.233 90.5094 148.189 89.9334 149.372 89.7654C150.556 89.6 151.615 89.8907 152.252 90.252C152.899 90.616 153.159 91.0027 153.067 91.1213" fill="#3F3D56"/>
<path d="M159.988 101.298C159.964 101.192 161.115 100.816 162.991 100.293C163.468 100.172 163.913 100.009 163.947 99.6664C164.009 99.2998 163.731 98.8064 163.413 98.2758C162.787 97.1691 162.131 96.0091 161.441 94.7944C158.684 89.8278 156.613 85.7158 156.815 85.6064C157.015 85.4971 159.413 89.4344 162.171 94.3998C162.837 95.6264 163.476 96.7944 164.085 97.9131C164.348 98.4371 164.755 99.0158 164.613 99.7784C164.536 100.161 164.219 100.474 163.92 100.605C163.623 100.745 163.351 100.789 163.113 100.838C161.204 101.224 160.011 101.405 159.988 101.298" fill="#3F3D56"/>
<path d="M162.649 123.849C162.649 123.849 155.407 125.519 145.435 121.345C145.435 121.345 149.74 130.613 163.32 127.319L162.649 123.849" fill="#B87561"/>
<path d="M152.112 86.1478C152 86.6905 150.068 86.7225 147.88 87.3158C145.68 87.8651 143.979 88.7784 143.616 88.3598C143.451 88.1571 143.693 87.6251 144.347 87.0184C144.995 86.4158 146.073 85.7731 147.389 85.4305C148.705 85.0891 149.96 85.1225 150.82 85.3345C151.685 85.5451 152.156 85.8905 152.112 86.1478" fill="#3F3D56"/>
<path d="M168.393 82.812C168.121 83.292 166.748 83.036 165.172 83.244C163.589 83.396 162.309 83.9573 161.937 83.5507C161.772 83.352 161.919 82.888 162.441 82.396C162.955 81.9054 163.865 81.4334 164.951 81.308C166.036 81.1854 167.031 81.44 167.641 81.8014C168.261 82.164 168.509 82.5814 168.393 82.812Z" fill="#3F3D56"/>
<path d="M148.952 93.5717C149.083 94.3957 149.888 94.9664 150.751 94.8451C151.613 94.7264 152.208 93.9624 152.077 93.1371C151.948 92.3131 151.143 91.7424 150.28 91.8624C149.417 91.9824 148.823 92.7477 148.952 93.5717" fill="#3F3D56"/>
<path d="M165.763 89.9358C165.892 90.7598 166.697 91.3291 167.56 91.2091C168.421 91.0891 169.017 90.3251 168.887 89.5011C168.757 88.6771 167.951 88.1064 167.089 88.2264C166.227 88.3464 165.632 89.1118 165.763 89.9358" fill="#3F3D56"/>
<path d="M162.975 104.994C161.753 104.641 160.701 105.26 160.205 106.145C159.709 107.032 159.828 108.242 160.541 108.964C161.255 109.688 162.525 109.801 163.312 109.161C163.847 108.726 164.115 108.032 164.183 107.348C164.247 106.714 164.143 106.037 163.752 105.534C163.361 105.033 162.639 104.762 162.057 105.021" fill="#B87561"/>
<path d="M170.764 73.0317C169.895 68.8131 166.991 65.2144 163.455 62.7557C160.451 60.6664 156.897 59.2851 153.241 59.1731C149.584 59.0611 145.836 60.2904 143.193 62.8224C141.24 64.6931 140.24 67.3424 140.148 70.0451L140.361 68.1797C139.812 69.7117 139.813 71.3731 140.384 72.8784L140.387 72.8877L140.385 72.8811C140.695 73.6971 141.065 74.5144 141.393 75.3331C142.327 77.6637 144.135 79.6304 146.379 80.7571C147.412 81.2757 148.557 81.6237 149.712 81.5691C150.867 81.5144 152.032 81.0171 152.733 80.0971C153.735 78.7837 153.619 76.9624 153.456 75.3184C154.448 76.8677 155.501 78.4744 157.095 79.3931C158.689 80.3091 160.993 80.2771 162.115 78.8197C163.201 77.4077 162.772 75.3797 162.143 73.7144C163.161 75.2677 164.621 76.5291 166.307 77.3117C167.239 77.7451 168.337 78.0304 169.283 77.6224C170.083 77.2757 170.621 76.4744 170.827 75.6264C171.031 74.7784 170.94 73.8851 170.764 73.0317" fill="#3F3D56"/>
<path d="M161.129 76.5146C161.009 76.5186 161.029 74.9333 160.516 72.4746C160.001 70.0573 158.777 66.6413 155.912 64.116C154.5 62.8693 152.876 62.0066 151.299 61.6253C149.719 61.2346 148.215 61.2813 147.005 61.5173C144.553 62.0159 143.365 63.18 143.292 63.0573C143.268 63.0306 143.524 62.7186 144.111 62.2946C144.693 61.8706 145.633 61.3613 146.897 61.0386C148.159 60.7266 149.751 60.6213 151.445 61.0026C153.141 61.376 154.881 62.2786 156.372 63.596C159.401 66.268 160.599 69.8906 160.999 72.3826C161.203 73.6533 161.248 74.692 161.239 75.4066C161.229 76.1213 161.173 76.5146 161.129 76.5146" fill="#365462"/>
<path d="M283.929 231.969L232.661 211.645C232.661 211.645 206.397 177.204 206.945 176.536L188.511 196.725L215.305 232.999L277.393 247.533L306.8 247.771C304.525 236.46 283.929 231.969 283.929 231.969Z" fill="#F9AD95"/>
<path d="M172.187 133.718L165.205 131.012L135.045 134.837V140.165L134.181 140.272C134.181 140.272 124.813 141.974 115.705 147.442C104.677 154.064 98.9448 166.834 100.987 179.536C102.214 187.162 104.592 196.433 109.172 201.79C117.931 212.037 125.931 199.373 125.931 199.373C125.931 199.373 131.429 211.914 131.114 217.845C130.848 222.812 128.652 233.161 127.945 236.393C127.826 236.938 128.184 237.464 128.732 237.565L192.357 249.328L192.668 233.777L190.644 169.814L187.837 144.973C187.837 144.973 187.925 133.105 172.187 133.718Z" fill="#BCE8CB"/>
<path d="M186.861 140.84L211.12 175.891L191.589 199.683L186.861 140.84Z" fill="#BCE8CB"/>
<path d="M192.061 214.601C192.013 214.6 191.981 213.794 191.967 212.338C191.947 210.766 191.921 208.69 191.889 206.18C191.764 200.985 191.471 193.802 190.436 185.944C189.431 178.081 187.903 171.056 186.733 165.99C186.159 163.546 185.683 161.524 185.324 159.994C184.991 158.577 184.829 157.786 184.876 157.774C184.921 157.762 185.172 158.528 185.585 159.925C186 161.321 186.563 163.352 187.211 165.874C188.504 170.917 190.115 177.954 191.124 185.856C192.164 193.749 192.38 200.968 192.38 206.174C192.355 208.781 192.317 210.888 192.236 212.344C192.169 213.798 192.109 214.602 192.061 214.601" fill="#3F3D56"/>
<path d="M132.368 161.306C132.364 161.418 130.527 161.396 127.573 161.553C124.62 161.709 120.548 162.113 116.133 163.024C111.718 163.942 107.82 165.188 105.048 166.22C102.275 167.248 100.598 167.998 100.551 167.897C100.529 167.853 100.927 167.621 101.666 167.236C102.402 166.845 103.495 166.337 104.869 165.762C107.614 164.606 111.531 163.272 115.992 162.344C120.453 161.424 124.578 161.093 127.556 161.062C129.046 161.045 130.251 161.077 131.081 161.144C131.913 161.202 132.369 161.258 132.368 161.306" fill="#FCFDFD"/>
<path d="M188.561 177.355C188.575 177.443 187.425 177.721 185.536 178.011C183.649 178.301 181.02 178.58 178.105 178.681C175.189 178.78 172.547 178.681 170.644 178.521C168.74 178.361 167.575 178.163 167.583 178.072C167.591 177.971 168.769 177.997 170.669 178.031C172.568 178.065 175.189 178.085 178.081 177.988C180.973 177.887 183.587 177.688 185.479 177.524C187.371 177.36 188.545 177.253 188.561 177.355" fill="#FCFDFD"/>
<path d="M199.699 161.491C199.821 161.619 197.673 163.765 194.493 165.7C191.321 167.651 188.433 168.585 188.375 168.416C188.299 168.227 191.02 167.023 194.131 165.108C197.251 163.211 199.563 161.335 199.699 161.491Z" fill="#FCFDFD"/>
<path d="M189.893 145.238C190.012 145.356 187.152 147.929 182.828 149.742C178.516 151.586 174.679 151.85 174.677 151.682C174.64 151.469 178.351 150.905 182.557 149.102C186.779 147.334 189.765 145.062 189.893 145.238" fill="#FCFDFD"/>
<path d="M191.217 204.489C191.236 204.533 190.787 204.767 189.957 205.151C189.131 205.543 187.904 206.045 186.367 206.609C183.297 207.739 178.928 208.999 173.981 209.764C169.032 210.519 164.485 210.628 161.217 210.471C159.583 210.396 158.263 210.284 157.356 210.159C156.449 210.041 155.951 209.953 155.956 209.905C155.967 209.792 157.979 209.955 161.229 209.981C164.48 210.011 168.976 209.825 173.876 209.077C178.775 208.32 183.117 207.148 186.208 206.144C189.303 205.143 191.172 204.384 191.217 204.489" fill="#FCFDFD"/>
<path d="M191.711 222.567C191.721 222.588 191.525 222.699 191.143 222.888C190.683 223.107 190.127 223.371 189.453 223.691C187.987 224.387 185.815 225.289 183.095 226.305C180.379 227.333 177.083 228.396 173.377 229.415C169.664 230.396 165.533 231.312 161.153 232.005C156.765 232.672 152.552 233.051 148.715 233.241C144.875 233.393 141.412 233.379 138.511 233.221C135.611 233.077 133.268 232.875 131.659 232.656C130.922 232.555 130.31 232.472 129.807 232.404C129.385 232.339 129.165 232.293 129.168 232.269C129.171 232.245 129.396 232.245 129.823 232.265C130.329 232.299 130.943 232.339 131.685 232.387C133.297 232.523 135.639 232.649 138.529 232.732C141.42 232.825 144.865 232.788 148.683 232.601C152.499 232.379 156.684 231.983 161.047 231.32C165.403 230.631 169.511 229.739 173.215 228.796C176.908 227.817 180.203 226.808 182.929 225.844C185.659 224.889 187.852 224.059 189.348 223.441C190.04 223.171 190.613 222.945 191.085 222.761C191.485 222.612 191.701 222.545 191.711 222.567" fill="#FCFDFD"/>
<path d="M74.7202 506.009L67.5136 538.588L54.3844 562.71C53.438 564.449 54.1625 566.625 55.9609 567.45C56.9683 567.913 58.1271 567.865 59.0875 567.31C65.1953 563.78 87.6016 550.686 87.9958 548.273C88.4521 545.477 97.8781 514.413 97.8781 514.413L74.7202 506.009Z" fill="#BCE8CB"/>
<path d="M57.464 567.8C56.95 567.8 56.4349 567.684 55.9609 567.45C56.4177 567.661 56.9063 567.765 57.3927 567.765C57.9787 567.765 58.5625 567.613 59.0875 567.31C62.0703 565.586 68.9407 561.581 75.236 557.653C75.2417 557.653 75.2536 557.653 75.2593 557.653C71.2219 560.184 65.964 563.378 59.1849 567.334C58.6557 567.644 58.0604 567.8 57.464 567.8ZM75.9115 557.231C76.9989 556.548 78.0656 555.871 79.0855 555.21H79.1031C78.1469 555.826 77.0932 556.5 75.9323 557.231C75.9265 557.231 75.9172 557.231 75.9115 557.231Z" fill="white"/>
<path d="M79.1031 555.21H79.0854C83.0754 552.627 86.3636 550.309 87.538 549.003C87.1926 549.547 86.7464 550.026 86.2156 550.408C85.0011 551.286 82.7817 552.836 79.1031 555.21Z" fill="#F6F7F7"/>
<path d="M88.2954 547.052H88.2771C88.3506 546.768 88.4355 546.445 88.5318 546.086H88.5328L88.2954 547.052" fill="#F6F7F7"/>
<path d="M88.0797 547.861C88.1286 547.644 88.1953 547.372 88.277 547.052H88.2953L88.1953 547.459C88.162 547.595 88.1234 547.729 88.0797 547.861" fill="#F6F7F7"/>
<path d="M75.2594 557.653C75.2536 557.653 75.2418 557.653 75.236 557.653C75.462 557.512 75.6875 557.371 75.9115 557.23C75.9172 557.23 75.9266 557.23 75.9323 557.23C75.712 557.369 75.487 557.51 75.2594 557.653Z" fill="#A5ADAD"/>
<path d="M57.3927 567.765C56.9063 567.765 56.4177 567.661 55.9609 567.451L88.5328 546.086C88.4355 546.445 88.3505 546.768 88.2771 547.052C88.1953 547.372 88.1287 547.644 88.0797 547.861C87.9453 548.264 87.7636 548.648 87.538 549.003C86.3636 550.309 83.0755 552.627 79.0855 555.21C78.0656 555.871 76.9989 556.548 75.9115 557.231C75.6875 557.371 75.462 557.512 75.236 557.653C68.9407 561.581 62.0703 565.586 59.0875 567.31C58.5625 567.614 57.9787 567.765 57.3927 567.765Z" fill="#2F2E41"/>
<path d="M85.1281 537.794C84.3235 537.794 83.5125 537.264 83.2531 536.49C82.9516 535.589 83.4281 534.513 84.2677 534.081L84.2656 534.082C84.4901 533.933 84.7552 533.866 85.0312 533.866C85.7953 533.866 86.6453 534.376 86.9599 535.053C87.388 535.974 86.6656 537.349 85.7099 537.694C85.5213 537.762 85.3251 537.794 85.1281 537.794" fill="#2F2E41"/>
<path d="M66.8407 555.11C66.6355 555.155 66.3208 553.278 64.6172 551.892C62.9557 550.455 61.0541 550.474 61.062 550.265C61.0536 550.177 61.5255 550.026 62.3099 550.106C63.0885 550.178 64.1584 550.553 65.0885 551.33C66.0156 552.11 66.5719 553.1 66.7792 553.853C66.9943 554.612 66.9271 555.104 66.8407 555.11" fill="#3F3D56"/>
<path d="M63.4683 558.883C63.2792 558.986 62.4979 557.676 60.9396 556.785C59.4011 555.86 57.8776 555.816 57.8751 555.602C57.8224 555.413 59.5511 555.107 61.3104 556.154C63.0812 557.18 63.6584 558.837 63.4683 558.883" fill="#3F3D56"/>
<path d="M72.5016 550.604C72.312 550.72 71.1193 548.701 68.8177 547.103C66.5406 545.468 64.2396 545.02 64.286 544.803C64.276 544.616 66.7937 544.757 69.2401 546.503C71.7046 548.224 72.6797 550.551 72.5016 550.604Z" fill="#3F3D56"/>
<path d="M75.5198 540.884C75.3855 541.055 73.7787 539.869 71.4703 539.213C69.1698 538.525 67.1782 538.664 67.1579 538.445C67.1068 538.267 69.2011 537.776 71.6751 538.509C74.1542 539.22 75.6588 540.757 75.5198 540.884Z" fill="#3F3D56"/>
<path d="M77.8771 531.373C77.7307 531.536 76.1959 530.014 73.7079 529.524C71.2307 528.977 69.2156 529.755 69.1464 529.549C69.1099 529.468 69.5631 529.148 70.4167 528.898C71.2631 528.649 72.5203 528.529 73.8573 528.806C75.1932 529.088 76.2973 529.701 76.9735 530.27C77.6552 530.838 77.9427 531.314 77.8771 531.373Z" fill="#3F3D56"/>
<path d="M74.2088 527.726C74.1682 527.719 74.201 527.264 74.4656 526.491C74.7297 525.723 75.2412 524.624 76.2281 523.519C76.7254 523.003 77.2802 522.319 78.289 522.113C78.7917 522.008 79.4417 522.257 79.7202 522.78C79.9989 523.291 79.989 523.852 79.874 524.369C79.3354 526.417 77.0812 527.973 74.6953 527.701C72.3098 527.386 70.5312 525.544 70.0469 523.543C69.9584 523.033 69.9578 522.436 70.3437 521.949C70.726 521.457 71.439 521.398 71.8838 521.593C72.8104 521.973 73.2812 522.676 73.7458 523.225C74.6421 524.397 75.1016 525.51 75.3396 526.285C75.5776 527.065 75.6041 527.519 75.5625 527.528C75.4286 527.585 75.1344 525.736 73.3417 523.552C72.8817 523.037 72.3609 522.4 71.6838 522.167C71.3541 522.05 71.0306 522.113 70.8437 522.356C70.6557 522.588 70.624 523.01 70.7104 523.414C71.1306 525.059 72.7614 526.738 74.7817 526.974C76.7901 527.223 78.7697 525.852 79.2182 524.208C79.3202 523.81 79.3125 523.384 79.1578 523.095C79.0052 522.81 78.7021 522.667 78.3734 522.716C77.6802 522.814 77.0906 523.392 76.6057 523.873C74.6568 525.917 74.3453 527.795 74.2088 527.726" fill="#3F3D56"/>
<path d="M95.9109 520.931C97.0677 517.084 97.8782 514.414 97.8782 514.414L95.9109 520.931Z" fill="#B2B1B0"/>
<path d="M72.9131 514.179L73.8798 509.545L74.7203 506.009L72.9131 514.179Z" fill="#A2A1A0"/>
<path d="M95.9109 520.931L72.3208 517.017L72.9131 514.179L74.7203 506.009L97.8781 514.414C97.8781 514.414 97.0677 517.084 95.9104 520.931" fill="#96CFAA"/>
<path d="M180.128 518.065L178.18 544.098C178.18 544.098 203.985 554.82 204.095 559.665L153.484 557.703L154.855 517.017L180.128 518.065Z" fill="#BCE8CB"/>
<path d="M163.016 545.164C162.131 545.164 161.261 544.483 161.095 543.601C160.919 542.666 161.537 541.666 162.428 541.352C162.605 541.266 162.797 541.228 162.995 541.228C163.816 541.228 164.721 541.898 164.963 542.68C165.261 543.652 164.359 544.916 163.365 545.128C163.249 545.153 163.132 545.164 163.016 545.164Z" fill="#2F2E41"/>
<path d="M204.095 559.665L154.441 557.74L204.095 559.665C204.081 559.104 203.724 558.462 203.1 557.768C203.159 557.768 203.221 557.768 203.281 557.768C203.788 558.231 204.251 558.886 204.095 559.665" fill="white"/>
<path d="M203.281 557.768C203.221 557.768 203.159 557.768 203.1 557.768C202.947 557.598 202.779 557.425 202.596 557.249C202.795 557.376 203.043 557.55 203.281 557.768" fill="#A5ADAD"/>
<path d="M204.095 559.665L154.441 557.74L153.484 557.703L153.783 553.607L202.196 557.021C202.196 557.021 202.361 557.101 202.596 557.249C202.779 557.425 202.947 557.598 203.1 557.768C203.724 558.462 204.081 559.104 204.095 559.665" fill="#2F2E41"/>
<path d="M179.009 543.872C178.992 544.119 177.752 544.183 176.505 544.93C175.239 545.645 174.571 546.692 174.347 546.585C174.121 546.528 174.547 545.064 176.073 544.186C177.589 543.295 179.072 543.648 179.009 543.872Z" fill="#3F3D56"/>
<path d="M184.233 546.274C184.281 546.514 183.195 546.893 182.313 547.907C181.404 548.893 181.148 550.014 180.903 549.996C180.669 550.025 180.555 548.571 181.672 547.332C182.78 546.085 184.237 546.037 184.233 546.274Z" fill="#3F3D56"/>
<path d="M187.001 552.743C186.775 552.788 186.479 551.54 187.167 550.21C187.844 548.877 189.031 548.388 189.127 548.598C189.259 548.807 188.48 549.502 187.932 550.604C187.36 551.689 187.248 552.728 187.001 552.743Z" fill="#3F3D56"/>
<path d="M178.796 537.889C178.684 538.11 177.563 537.726 176.163 537.768C174.761 537.778 173.656 538.206 173.535 537.989C173.399 537.805 174.496 536.931 176.147 536.906C177.796 536.869 178.924 537.701 178.796 537.889" fill="#3F3D56"/>
<path d="M154.529 526.669L154.697 521.305L154.711 521.306L154.529 526.669Z" fill="#B2B1B0"/>
<path d="M179.395 527.861L154.529 526.669L154.711 521.307L179.735 523.221L179.395 527.861Z" fill="#96CFAA"/>
<path d="M179.092 532.631C179.091 532.733 178.108 532.848 176.557 532.52C175.785 532.355 174.881 532.065 173.937 531.603C173.467 531.371 172.985 531.096 172.512 530.775C172.284 530.614 172.013 530.452 171.769 530.148C171.505 529.88 171.376 529.219 171.707 528.829C171.981 528.449 172.447 528.3 172.812 528.305C173.185 528.308 173.484 528.395 173.757 528.473C174.316 528.632 174.837 528.84 175.312 529.076C176.263 529.553 177.027 530.14 177.589 530.7C178.723 531.832 179.087 532.772 179.001 532.817C178.885 532.893 178.344 532.098 177.184 531.155C176.605 530.684 175.863 530.193 174.973 529.792C174.528 529.595 174.045 529.421 173.535 529.286C173.004 529.125 172.549 529.105 172.401 529.337C172.348 529.427 172.34 529.461 172.447 529.622C172.557 529.773 172.768 529.922 172.992 530.08C173.428 530.39 173.869 530.661 174.301 530.897C175.168 531.371 176 531.701 176.716 531.932C178.149 532.392 179.101 532.497 179.092 532.631" fill="#3F3D56"/>
<path d="M178.756 532.973C178.668 533.007 178.211 532.104 178.183 530.498C178.171 529.704 178.291 528.743 178.636 527.737C178.811 527.235 179.043 526.723 179.341 526.223C179.657 525.735 180.045 525.078 181.008 525.007C181.509 525.007 181.911 525.414 182.039 525.754C182.193 526.104 182.215 526.397 182.263 526.693C182.333 527.288 182.3 527.867 182.199 528.4C181.997 529.472 181.521 530.35 181.015 530.977C179.975 532.25 178.932 532.505 178.915 532.421C178.837 532.293 179.717 531.85 180.523 530.619C180.92 530.012 181.283 529.207 181.417 528.269C181.484 527.801 181.496 527.304 181.427 526.802C181.368 526.261 181.184 525.819 180.98 525.866C180.728 525.853 180.285 526.241 180.061 526.662C179.784 527.107 179.559 527.562 179.38 528.012C179.028 528.914 178.856 529.784 178.791 530.523C178.664 532.004 178.892 532.941 178.756 532.973Z" fill="#3F3D56"/>
<path d="M127.727 237.38C127.727 237.38 119.692 237.732 114.396 265.093C109.102 292.456 68.4036 514.148 68.4036 514.148L97.8786 514.413L153.484 303.645L149.789 520.931L179.735 523.221C179.735 523.221 202.207 282.84 202.419 268.853C202.683 251.416 192.668 233.777 192.668 233.777L127.727 237.38" fill="#3F3D56"/>
<path d="M168.24 235.037C168.428 235.076 165.369 250.708 161.409 269.948C157.448 289.194 154.085 304.761 153.897 304.721C153.709 304.682 156.768 289.053 160.729 269.808C164.689 250.568 168.053 234.998 168.24 235.037" fill="#365462"/>
<path d="M172.837 238.941C172.787 238.873 173.636 238.621 174.549 239.439C174.971 239.832 175.384 240.487 175.353 241.324C175.337 242.172 174.696 242.997 173.844 243.347C173 243.712 171.961 243.595 171.343 243.015C170.721 242.452 170.543 241.697 170.555 241.123C170.608 239.897 171.381 239.465 171.393 239.549C171.487 239.617 170.96 240.12 171.045 241.109C171.089 241.581 171.296 242.156 171.756 242.527C172.201 242.905 172.925 242.979 173.575 242.707C174.223 242.432 174.676 241.863 174.715 241.28C174.772 240.692 174.504 240.141 174.197 239.78C173.548 239.029 172.821 239.055 172.837 238.941" fill="#365462"/>
<path d="M171.56 249.776C171.541 249.693 172.389 249.804 172.852 250.887C173.056 251.397 173.149 252.137 172.769 252.849C172.397 253.577 171.484 254.008 170.605 253.931C169.724 253.872 168.887 253.304 168.633 252.527C168.368 251.764 168.575 251.048 168.856 250.575C169.48 249.579 170.335 249.599 170.304 249.679C170.347 249.784 169.676 249.948 169.289 250.805C169.109 251.215 169.015 251.785 169.229 252.296C169.425 252.807 169.997 253.185 170.659 253.239C171.32 253.288 171.943 253.003 172.216 252.529C172.507 252.057 172.503 251.479 172.388 251.047C172.139 250.14 171.501 249.873 171.56 249.776" fill="#365462"/>
<path d="M143.313 239.216C143.353 239.228 143.248 239.721 142.961 240.585C142.679 241.451 142.18 242.677 141.408 244.116C139.888 246.987 137.053 250.688 132.855 253.453C128.656 256.221 124.135 257.367 120.898 257.632C119.271 257.775 117.948 257.748 117.042 257.668C116.135 257.589 115.641 257.492 115.645 257.449C115.651 257.32 117.658 257.547 120.845 257.144C124.012 256.759 128.387 255.567 132.473 252.875C136.557 250.183 139.379 246.633 140.98 243.875C142.608 241.105 143.191 239.171 143.313 239.216" fill="#365462"/>
<path d="M200.665 258.663C200.637 258.701 200.325 258.511 199.781 258.129C199.228 257.76 198.489 257.137 197.643 256.3C195.945 254.636 193.944 251.929 192.62 248.517C191.311 245.1 190.979 241.749 191.121 239.376C191.187 238.188 191.316 237.229 191.477 236.585C191.625 235.937 191.729 235.587 191.776 235.596C191.901 235.619 191.617 237.056 191.612 239.388C191.599 241.715 191.997 244.948 193.268 248.268C194.555 251.581 196.428 254.247 198 255.961C199.568 257.687 200.743 258.561 200.665 258.663" fill="#365462"/>
<path d="M116.006 184.649L129.102 185.373C129.93 189.618 132.805 196.109 132.805 196.109C143.345 177.812 151.519 153.297 153.548 143.445C153.252 142.461 152.901 141.372 152.465 140.156C151.961 138.75 152.393 136.092 152.631 134.614C152.985 132.421 153.599 129.469 153.783 128.104C154.344 123.94 155.015 123.286 156.467 123.757C158.443 124.397 155.657 135.449 157.276 135.689C158.147 135.817 159.209 132.032 159.519 128.925C159.827 125.818 161.232 116.262 162.259 115.625C163.764 114.692 165.076 116.169 164.696 119.262C164.311 122.393 163.825 131.73 165.468 131.857C167.085 131.981 168.443 116.138 168.443 116.138C168.443 116.138 168.188 112.69 170.088 112.773C173.517 112.922 170.837 129.625 170.544 131.208C170.339 132.308 172.12 132.509 172.277 131.316C172.439 130.085 173.265 115.472 176.756 115.589C179.436 115.68 174.681 129.353 176.185 132.524C177.689 135.692 178.735 121.757 181.293 121.949C182.245 122.021 182.949 122.208 181.199 130.093C180.259 134.332 177.496 142.124 175.081 148.576C171.028 170.442 153.236 240.393 125.342 227.588C109.733 220.424 102.45 184.949 102.45 184.949L116.006 184.649Z" fill="#F9AD95"/>
<path d="M175.083 148.588C175.068 148.582 175.113 148.42 175.215 148.109C175.335 147.756 175.489 147.302 175.681 146.733C176.117 145.472 176.728 143.705 177.507 141.454C178.284 139.158 179.239 136.348 180.188 133.045C180.675 131.396 181.068 129.609 181.436 127.693C181.613 126.737 181.795 125.752 181.907 124.74C181.953 124.237 182.007 123.72 181.976 123.224C181.94 122.704 181.86 122.278 181.449 122.272C181.025 122.157 180.74 122.508 180.449 122.949C180.181 123.393 179.973 123.905 179.787 124.428C179.413 125.477 179.121 126.596 178.832 127.74C178.541 128.884 178.273 130.06 177.924 131.258C177.715 131.864 177.621 132.448 177.125 133.098C177.032 133.177 176.948 133.281 176.76 133.318C176.555 133.37 176.401 133.292 176.259 133.205C176.067 133.034 175.975 132.862 175.891 132.702C175.74 132.365 175.648 132.02 175.609 131.685C175.371 129.009 175.98 126.422 176.397 123.737C176.627 122.398 176.869 121.044 177.045 119.672C177.131 118.988 177.203 118.296 177.211 117.615C177.236 116.983 177.125 116.129 176.848 116.008C176.507 115.88 175.889 116.266 175.563 116.832C175.196 117.388 174.923 118.048 174.691 118.721C174.228 120.078 173.925 121.524 173.665 122.988C173.411 124.456 173.212 125.952 173.048 127.468C172.975 128.226 172.9 128.99 172.825 129.757L172.724 130.915C172.696 131.228 172.696 131.882 172.195 132.258C171.731 132.606 171.112 132.642 170.617 132.321C170.369 132.161 170.176 131.864 170.139 131.562C170.107 131.409 170.135 131.269 170.145 131.136L170.196 130.849C170.313 130.076 170.433 129.3 170.552 128.518C170.772 126.953 170.963 125.371 171.115 123.775C171.264 122.179 171.375 120.567 171.4 118.949C171.403 117.349 171.391 115.672 170.929 114.207C170.779 113.761 170.532 113.357 170.257 113.241C169.975 113.139 169.567 113.242 169.357 113.528C168.895 114.177 168.819 115.248 168.855 116.118L168.857 116.161L168.855 116.185C168.569 119.318 168.228 122.397 167.777 125.424C167.545 126.937 167.297 128.436 166.917 129.916C166.823 130.287 166.709 130.657 166.579 131.026C166.401 131.396 166.352 131.772 165.823 132.179C165.365 132.397 165.025 132.148 164.844 131.962C164.649 131.758 164.571 131.557 164.48 131.36C164.327 130.968 164.249 130.589 164.181 130.211C163.757 127.205 163.932 124.313 164.101 121.477C164.157 120.052 164.505 118.641 164.317 117.39C164.228 116.77 163.985 116.148 163.573 115.872C163.371 115.738 163.14 115.708 162.891 115.766C162.765 115.805 162.641 115.849 162.519 115.924C162.397 116.022 162.423 115.985 162.331 116.153C161.812 117.242 161.56 118.62 161.28 119.866C161.017 121.141 160.793 122.41 160.589 123.664C160.387 124.916 160.207 126.153 160.047 127.372C159.881 128.581 159.799 129.806 159.56 130.997C159.335 132.184 159.06 133.339 158.628 134.445C158.519 134.723 158.393 134.996 158.243 135.265C158.056 135.516 157.951 135.842 157.44 135.998C157.148 136.078 156.895 135.88 156.764 135.713C156.652 135.541 156.597 135.377 156.553 135.22C156.485 134.913 156.457 134.618 156.447 134.332C156.417 132.06 156.755 129.976 156.867 127.964C156.931 126.966 156.976 125.98 156.86 125.068C156.8 124.64 156.663 124.138 156.419 124.038C156.061 123.896 155.6 123.821 155.332 124.015C154.743 124.44 154.537 125.414 154.345 126.196C154.156 127.021 154.071 127.838 153.92 128.626C153.365 131.781 152.777 134.489 152.492 136.702C152.363 137.809 152.309 138.808 152.449 139.64C152.635 140.446 152.905 141.161 153.061 141.721C153.219 142.253 153.344 142.677 153.444 143.011C153.525 143.301 153.56 143.452 153.548 143.456C153.535 143.46 153.473 143.317 153.365 143.034C153.248 142.708 153.097 142.293 152.909 141.772C152.724 141.204 152.445 140.554 152.217 139.684C152.044 138.81 152.076 137.793 152.184 136.669C152.425 134.416 152.964 131.726 153.476 128.566C153.617 127.781 153.693 126.945 153.876 126.097C153.972 125.672 154.065 125.24 154.227 124.805C154.396 124.385 154.577 123.9 155.063 123.581C155.579 123.26 156.152 123.377 156.636 123.561C157.261 123.918 157.284 124.518 157.393 124.989C157.529 125.986 157.487 126.982 157.433 128C157.336 130.024 157.02 132.15 157.065 134.304C157.077 134.569 157.108 134.829 157.161 135.066C157.219 135.326 157.351 135.425 157.324 135.376C157.371 135.385 157.575 135.155 157.689 134.944C157.815 134.716 157.928 134.468 158.028 134.209C158.425 133.169 158.691 132.032 158.903 130.877C159.127 129.724 159.2 128.522 159.363 127.285C159.516 126.057 159.691 124.813 159.888 123.552C160.087 122.29 160.305 121.012 160.565 119.72C160.861 118.42 161.049 117.136 161.681 115.784C161.72 115.648 161.995 115.344 162.149 115.27C162.317 115.169 162.508 115.094 162.709 115.036C163.116 114.928 163.615 114.988 163.984 115.237C164.717 115.753 164.949 116.56 165.072 117.273C165.183 118.005 165.145 118.746 165.063 119.452C164.984 120.136 164.927 120.833 164.877 121.532C164.715 124.322 164.561 127.244 164.971 130.073C165.032 130.417 165.108 130.765 165.227 131.06C165.287 131.198 165.357 131.345 165.425 131.406L165.491 131.458L165.496 131.46L165.499 131.464C165.475 131.777 165.495 131.53 165.489 131.592L165.435 131.477C165.504 131.421 165.717 131.055 165.82 130.745C165.937 130.412 166.044 130.067 166.133 129.712C166.497 128.289 166.741 126.8 166.969 125.302C167.412 122.302 167.751 119.227 168.032 116.115V116.18C168.016 115.155 167.999 114.08 168.707 113.017C169.12 112.493 169.865 112.209 170.567 112.473C171.26 112.797 171.516 113.417 171.711 113.932C172.24 115.638 172.223 117.31 172.227 118.961C172.2 120.612 172.087 122.24 171.935 123.852C171.78 125.464 171.587 127.057 171.363 128.634C171.241 129.421 171.12 130.206 170.999 130.988C170.9 131.484 170.924 131.5 171.072 131.647C171.232 131.768 171.541 131.749 171.692 131.622C171.863 131.508 171.883 131.276 171.919 130.843L172.021 129.685C172.099 128.913 172.175 128.145 172.252 127.381C172.42 125.852 172.624 124.34 172.885 122.85C173.156 121.362 173.465 119.892 173.955 118.468C174.204 117.758 174.491 117.054 174.925 116.4C175.147 116.076 175.404 115.753 175.781 115.516C176.167 115.295 176.589 115.093 177.168 115.315C177.715 115.615 177.809 116.121 177.895 116.49C177.952 116.878 177.977 117.257 177.965 117.622C177.953 118.357 177.875 119.066 177.785 119.768C177.6 121.166 177.351 122.524 177.115 123.862C176.68 126.518 176.08 129.162 176.288 131.59C176.321 131.888 176.4 132.161 176.501 132.402C176.563 132.524 176.631 132.625 176.673 132.669L176.641 132.728L176.627 132.721L176.636 132.633C176.916 132.288 177.115 131.62 177.289 131.069C177.635 129.905 177.913 128.728 178.212 127.581C178.512 126.433 178.815 125.305 179.211 124.218C179.411 123.676 179.629 123.141 179.939 122.636C180.107 122.388 180.272 122.133 180.545 121.929C180.667 121.82 180.847 121.742 181.021 121.693C181.229 121.661 181.397 121.666 181.533 121.692C181.848 121.705 182.272 121.98 182.376 122.309C182.505 122.621 182.533 122.913 182.547 123.193C182.575 123.754 182.512 124.281 182.46 124.804C182.335 125.842 182.141 126.833 181.952 127.794C181.564 129.712 181.143 131.522 180.633 133.173C179.636 136.481 178.636 139.278 177.811 141.561C176.98 143.842 176.307 145.601 175.839 146.79C175.613 147.348 175.433 147.793 175.295 148.138C175.167 148.44 175.095 148.592 175.083 148.588" fill="#B87561"/>
<path d="M102.302 186.164C104.835 195.102 109.784 208.913 115.105 223.472C115.875 225.577 118.802 225.714 119.759 223.689L132.805 196.109C132.805 196.109 129.664 173.452 129.93 174.252C130.196 175.052 103.016 177.184 103.016 177.184L102.302 186.164Z" fill="#BCE8CB"/>
<path d="M131.681 181.718C131.711 181.829 130.06 182.306 127.479 183.292C124.896 184.273 121.404 185.833 117.801 188.012C114.202 190.201 111.204 192.577 109.141 194.413C107.073 196.248 105.886 197.489 105.802 197.412C105.767 197.38 106.029 197.037 106.533 196.442C107.033 195.845 107.807 195.024 108.807 194.053C110.804 192.108 113.794 189.636 117.441 187.418C121.091 185.21 124.666 183.701 127.313 182.83C128.637 182.392 129.723 182.084 130.484 181.918C131.244 181.745 131.669 181.672 131.681 181.718Z" fill="#FCFDFD"/>
<path d="M136.852 188.596C136.783 188.645 135.895 187.599 134.676 185.748C133.456 183.9 131.946 181.219 130.646 178.091C129.351 174.959 128.522 171.996 128.077 169.827C127.629 167.656 127.516 166.288 127.599 166.276C127.705 166.257 127.989 167.592 128.554 169.713C129.118 171.833 130.01 174.733 131.288 177.825C132.571 180.913 133.992 183.592 135.095 185.491C136.196 187.389 136.939 188.533 136.852 188.596Z" fill="#3F3D56"/>
<path d="M145.553 66.445C140.991 73.821 140.021 83.361 143.005 91.5236C144.345 95.185 146.468 98.805 146.08 102.692C145.681 106.673 142.661 110.434 143.728 114.286C144.36 116.564 146.315 118.253 147.064 120.494C147.944 123.122 147.027 125.969 146.608 128.712C145.541 135.694 147.773 142.716 148.327 149.76C148.88 156.804 146.979 165.048 140.697 168.12C138.787 169.053 136.292 169.322 134.704 167.898C132.688 166.09 133.249 162.844 133.801 160.174C139.321 133.484 122.269 107.484 126.163 80.4996C126.787 76.1743 129.203 68.8357 132.317 65.809C135.431 62.7837 144.043 63.1517 146.989 66.3437" fill="#3F3D56"/>
<path d="M119.29 143.796C119.234 143.751 120.091 142.836 121.292 140.944C122.487 139.065 123.99 136.132 124.775 132.213C125.156 130.256 125.325 128.076 125.185 125.728C125.083 123.381 124.753 120.855 124.911 118.153C124.966 116.801 125.255 115.425 125.676 114.067C126.148 112.727 126.763 111.412 127.507 110.151C128.999 107.628 130.889 105.279 132.618 102.769C134.347 100.268 135.781 97.6187 136.247 94.8201C136.713 92.0214 136.209 89.2494 135.781 86.6387C135.319 84.0254 135.001 81.4521 135.192 79.0614C135.344 76.6721 135.823 74.4787 136.471 72.5547C137.78 68.6947 139.716 65.9601 141.184 64.2574C141.923 63.4014 142.548 62.7814 142.999 62.3947C143.444 62.0001 143.684 61.8027 143.7 61.8214C143.752 61.8747 142.801 62.6907 141.392 64.4307C140.003 66.1667 138.163 68.9028 136.937 72.7081C136.331 74.6054 135.892 76.7587 135.767 79.0934C135.605 81.4347 135.933 83.9147 136.412 86.5307C136.853 89.1361 137.397 91.9747 136.917 94.9294C136.436 97.8827 134.94 100.631 133.191 103.161C131.438 105.703 129.557 108.036 128.093 110.497C127.362 111.727 126.766 112.995 126.304 114.279C125.898 115.577 125.611 116.883 125.549 118.195C125.377 120.811 125.68 123.329 125.761 125.704C125.877 128.083 125.676 130.327 125.256 132.312C124.393 136.296 122.795 139.239 121.518 141.093C120.877 142.027 120.32 142.705 119.927 143.151C119.526 143.591 119.307 143.812 119.29 143.796" fill="#365462"/>
<path d="M106.643 145.793C106.622 145.781 106.766 145.473 107.057 144.899C107.385 144.267 107.815 143.435 108.353 142.396C109.469 140.221 111.14 137.093 112.783 133.053C114.393 129.028 115.99 123.985 116.039 118.236C116.047 116.805 115.943 115.34 115.713 113.861C115.483 112.381 115.14 110.869 114.916 109.291C114.702 107.719 114.599 106.042 115.017 104.388C115.43 102.726 116.473 101.251 117.731 100.107C120.244 97.8225 123.276 96.3332 124.843 93.6585C126.447 91.0292 126.802 87.9452 127.207 85.1079C127.554 82.2399 128.104 79.4785 129.042 77.0518C129.949 74.6132 131.161 72.4945 132.425 70.6905C134.971 67.0665 137.801 64.7852 139.837 63.4278C140.863 62.7505 141.693 62.2785 142.277 61.9998C142.856 61.7145 143.164 61.5732 143.175 61.5958C143.211 61.6625 141.98 62.2452 139.991 63.6505C138.021 65.0625 135.28 67.3705 132.829 70.9705C131.611 72.7625 130.447 74.8558 129.582 77.2532C128.685 79.6465 128.173 82.3172 127.841 85.1932C127.447 88.0305 127.121 91.1972 125.423 94.0145C123.725 96.8932 120.586 98.4252 118.203 100.616C117.002 101.713 116.069 103.045 115.685 104.56C115.301 106.073 115.385 107.664 115.59 109.197C115.803 110.739 116.14 112.248 116.369 113.761C116.598 115.276 116.696 116.779 116.679 118.24C116.591 124.115 114.917 129.205 113.237 133.24C111.522 137.288 109.781 140.386 108.591 142.525C108.005 143.537 107.536 144.349 107.18 144.967C106.848 145.52 106.665 145.804 106.643 145.793" fill="#365462"/>
<path d="M547.795 522.548C547.781 522.541 547.861 522.35 548.028 521.985C548.213 521.586 548.464 521.053 548.783 520.374C549.424 518.95 550.259 516.795 551.003 513.926C552.472 508.193 552.984 499.431 550.813 489.025C549.805 483.814 548.18 478.225 546.196 472.3C544.24 466.364 541.971 460.065 540.116 453.257C538.281 446.465 536.835 439.092 537.113 431.362C537.395 423.618 539.688 415.889 542.208 408.194C544.725 400.486 547.327 392.953 548.107 385.376C548.989 377.812 547.369 370.386 543.923 364.302C540.585 358.154 536.387 352.894 533.245 347.446C530.053 342.018 528.057 336.436 526.827 331.244C524.441 320.776 525.277 311.953 526.42 306.141C527.657 300.296 529.039 297.274 529.039 297.274C529.052 297.28 529 297.48 528.884 297.864C528.753 298.284 528.579 298.846 528.355 299.564C527.892 301.056 527.293 303.286 526.725 306.2C525.683 312 524.944 320.761 527.376 331.114C528.632 336.249 530.637 341.758 533.816 347.112C536.952 352.496 541.169 357.732 544.573 363.953C548.091 370.105 549.783 377.773 548.887 385.454C548.101 393.161 545.479 400.744 542.969 408.441C540.448 416.129 538.183 423.778 537.896 431.392C537.611 439.002 539.023 446.305 540.827 453.064C542.651 459.84 544.895 466.14 546.825 472.092C548.785 478.036 550.391 483.669 551.368 488.917C553.481 499.401 552.879 508.25 551.305 514.002C550.508 516.884 549.621 519.034 548.928 520.442C548.58 521.109 548.305 521.631 548.1 522.023C547.909 522.377 547.807 522.556 547.795 522.548" fill="#3F3D56"/>
<path d="M537.513 352.822C537.513 352.822 531.132 332.417 542.579 320.469C542.98 320.05 543.688 320.248 543.792 320.82C544.403 324.189 545.167 334.453 537.513 352.822" fill="#BCE8CB"/>
<path d="M541.336 327.269C541.444 327.289 541.261 328.725 540.907 331.033C540.487 333.625 539.995 336.669 539.451 340.033C538.917 343.396 538.433 346.44 538.023 349.032C537.672 351.336 537.464 352.767 537.347 352.757C537.243 352.749 537.255 351.297 537.461 348.964C537.672 346.632 538.084 343.425 538.661 339.904C539.237 336.384 539.851 333.215 540.351 330.929C540.849 328.645 541.228 327.247 541.336 327.269Z" fill="#3F3D56"/>
<path d="M545.009 400.946C545.009 400.946 548.912 379.928 564.616 374.72C565.167 374.537 565.7 375.044 565.524 375.597C564.488 378.861 560.364 388.29 545.009 400.946Z" fill="#BCE8CB"/>
<path d="M560.339 380.149C560.423 380.219 559.591 381.401 558.199 383.276C556.615 385.371 554.755 387.832 552.701 390.549C550.657 393.273 548.807 395.736 547.231 397.836C545.844 399.709 544.991 400.875 544.892 400.812C544.804 400.757 545.492 399.479 546.767 397.513C548.043 395.552 549.907 392.908 552.064 390.067C554.22 387.224 556.245 384.709 557.755 382.924C559.263 381.137 560.253 380.079 560.339 380.149" fill="#3F3D56"/>
<path d="M540.764 453.68C540.764 453.68 538.395 432.433 551.909 422.888C552.384 422.555 553.04 422.884 553.033 423.464C552.989 426.888 551.781 437.11 540.764 453.68" fill="#BCE8CB"/>
<path d="M549.392 429.327C549.495 429.368 549.041 430.743 548.253 432.94C547.347 435.404 546.283 438.298 545.107 441.497C543.94 444.696 542.885 447.592 541.987 450.057C541.204 452.253 540.727 453.616 540.613 453.585C540.513 453.557 540.801 452.135 541.449 449.884C542.101 447.636 543.117 444.565 544.357 441.22C545.592 437.873 546.801 434.879 547.727 432.732C548.651 430.585 549.291 429.284 549.392 429.327Z" fill="#3F3D56"/>
<path d="M552.595 506.721C552.595 506.721 550.985 485.404 564.835 476.349C565.321 476.032 565.965 476.385 565.937 476.965C565.772 480.385 564.197 490.556 552.595 506.721" fill="#BCE8CB"/>
<path d="M562.089 482.692C562.191 482.737 561.688 484.095 560.82 486.263C559.827 488.695 558.659 491.549 557.369 494.701C556.091 497.857 554.932 500.714 553.947 503.147C553.087 505.312 552.559 506.657 552.447 506.621C552.349 506.591 552.687 505.179 553.416 502.952C554.147 500.728 555.272 497.697 556.631 494.397C557.985 491.098 559.301 488.15 560.303 486.038C561.304 483.924 561.988 482.647 562.089 482.692" fill="#3F3D56"/>
<path d="M528.343 334.893C528.343 334.893 509.392 324.998 509.021 308.456C509.008 307.876 509.647 307.514 510.125 307.845C512.941 309.792 520.747 316.501 528.343 334.893" fill="#BCE8CB"/>
<path d="M512.956 314.137C513.047 314.076 513.933 315.22 515.316 317.101C516.856 319.229 518.663 321.728 520.659 324.489C522.663 327.242 524.476 329.734 526.02 331.857C527.405 333.732 528.268 334.889 528.179 334.965C528.1 335.033 527.08 334 525.576 332.206C524.075 330.409 522.093 327.853 520.011 324.956C517.924 322.062 516.115 319.388 514.851 317.422C513.587 315.454 512.864 314.2 512.956 314.137" fill="#3F3D56"/>
<path d="M548.692 378.716C548.692 378.716 529.176 369.988 527.8 353.498C527.752 352.921 528.368 352.521 528.867 352.822C531.796 354.596 539.993 360.818 548.692 378.716Z" fill="#BCE8CB"/>
<path d="M532.073 358.933C532.16 358.865 533.115 359.952 534.609 361.746C536.275 363.777 538.231 366.162 540.391 368.796C542.557 371.424 544.519 373.8 546.189 375.825C547.685 377.612 548.617 378.716 548.533 378.797C548.459 378.869 547.377 377.9 545.767 376.201C544.159 374.498 542.028 372.066 539.771 369.302C537.515 366.541 535.544 363.981 534.164 362.094C532.783 360.209 531.984 358.998 532.073 358.933" fill="#3F3D56"/>
<path d="M537.463 427.596C537.463 427.596 524.063 410.937 530.348 395.632C530.568 395.094 531.3 395.02 531.604 395.514C533.405 398.428 537.868 407.701 537.463 427.596" fill="#BCE8CB"/>
<path d="M531.677 402.415C531.785 402.395 532.141 403.797 532.653 406.076C533.211 408.643 533.867 411.656 534.589 414.985C535.321 418.311 535.985 421.32 536.551 423.884C537.068 426.156 537.396 427.563 537.283 427.597C537.185 427.627 536.663 426.272 536.003 424.024C535.347 421.777 534.556 418.643 533.808 415.153C533.056 411.665 532.469 408.491 532.097 406.183C531.727 403.875 531.568 402.435 531.677 402.415Z" fill="#3F3D56"/>
<path d="M550.736 485.117C550.736 485.117 531.368 476.063 530.269 459.555C530.232 458.975 530.856 458.586 531.347 458.895C534.248 460.717 542.339 467.077 550.736 485.117" fill="#BCE8CB"/>
<path d="M534.451 465.057C534.54 464.993 535.476 466.096 536.94 467.914C538.572 469.974 540.487 472.389 542.601 475.06C544.725 477.723 546.645 480.133 548.281 482.185C549.748 483.998 550.661 485.116 550.576 485.197C550.5 485.268 549.435 484.28 547.853 482.553C546.273 480.826 544.184 478.359 541.975 475.556C539.764 472.757 537.839 470.164 536.489 468.256C535.14 466.347 534.363 465.124 534.451 465.057" fill="#3F3D56"/>
<path d="M589.312 401.061C589.331 401.063 589.339 401.223 589.337 401.533C589.328 401.904 589.316 402.353 589.304 402.899C589.247 404.184 589.169 405.919 589.075 408.083C588.824 412.641 588.476 418.996 588.06 426.596L588.059 426.613L588.053 426.64C586.672 434.376 582.732 442.95 577.439 451.274C573.557 457.408 569.488 462.984 565.977 468.169C562.445 473.34 559.464 478.129 557.385 482.373C555.293 486.61 554.077 490.253 553.365 492.797C553.025 494.073 552.769 495.069 552.623 495.752C552.463 496.431 552.367 496.785 552.339 496.78C552.311 496.774 552.356 496.412 552.464 495.721C552.56 495.026 552.768 494.016 553.064 492.72C553.687 490.136 554.832 486.433 556.876 482.126C558.908 477.816 561.861 472.961 565.367 467.757C568.853 462.536 572.901 456.95 576.763 450.849C582.028 442.565 585.947 434.121 587.38 426.509L587.375 426.553C587.909 418.959 588.356 412.611 588.675 408.057C588.851 405.897 588.989 404.167 589.093 402.887C589.148 402.343 589.193 401.896 589.231 401.527C589.267 401.22 589.295 401.06 589.312 401.061" fill="#3F3D56"/>
<path d="M577.781 449.684C577.781 449.684 585.983 429.94 575.665 417.006C575.304 416.553 574.581 416.686 574.425 417.245C573.512 420.546 571.821 430.698 577.781 449.684" fill="#BCE8CB"/>
<path d="M576.287 423.889C576.397 423.879 576.647 425.305 576.937 427.625C577.228 429.944 577.552 433.158 577.808 436.717C578.064 440.274 578.184 443.507 578.183 445.847C578.177 448.189 578.056 449.636 577.952 449.635C577.836 449.633 577.757 448.192 577.617 445.865C577.441 443.245 577.236 440.171 577.009 436.773C576.772 433.374 576.557 430.298 576.373 427.677C576.229 425.348 576.177 423.901 576.287 423.889" fill="#3F3D56"/>
<path d="M577.781 449.684C574.412 438.949 573.488 431.038 573.487 425.593C573.485 421.408 574.028 418.68 574.425 417.245C574.517 416.916 574.807 416.733 575.103 416.733C575.308 416.733 575.517 416.821 575.665 417.006C579.645 421.996 580.869 427.998 580.872 433.489C580.875 440.543 578.863 446.754 578.084 448.893C578.139 448.242 578.18 447.193 578.183 445.847C578.184 443.507 578.064 440.274 577.808 436.717C577.552 433.158 577.228 429.944 576.937 427.625C576.648 425.314 576.399 423.889 576.288 423.889H576.287C576.177 423.901 576.229 425.348 576.373 427.677C576.557 430.298 576.772 433.374 577.009 436.773C577.236 440.171 577.441 443.245 577.617 445.865C577.727 447.685 577.799 448.964 577.88 449.435C577.817 449.598 577.781 449.684 577.781 449.684" fill="#96CFAA"/>
<path d="M577.88 449.435C577.799 448.964 577.727 447.685 577.617 445.865C577.441 443.245 577.236 440.17 577.009 436.773C576.772 433.374 576.557 430.298 576.373 427.677C576.229 425.348 576.177 423.901 576.287 423.889H576.288C576.399 423.889 576.648 425.314 576.937 427.625C577.228 429.944 577.552 433.158 577.808 436.717C578.064 440.274 578.184 443.506 578.183 445.847C578.18 447.193 578.139 448.242 578.084 448.893C578.001 449.121 577.932 449.304 577.88 449.435" fill="#161C1E"/>
<path d="M552.375 497.262C552.375 497.262 558.951 476.918 547.617 464.864C547.219 464.44 546.511 464.631 546.401 465.202C545.757 468.565 544.897 478.822 552.375 497.262Z" fill="#BCE8CB"/>
<path d="M548.796 471.673C548.904 471.653 549.269 473.056 549.747 475.344C550.224 477.632 550.807 480.808 551.351 484.333C551.895 487.86 552.276 491.072 552.465 493.405C552.649 495.74 552.645 497.192 552.543 497.198C552.425 497.207 552.231 495.776 551.903 493.468C551.516 490.872 551.061 487.824 550.56 484.454C550.047 481.088 549.585 478.04 549.189 475.442C548.856 473.13 548.687 471.695 548.796 471.673Z" fill="#3F3D56"/>
<path d="M552.375 497.262C547.147 484.369 545.995 475.476 545.995 470.142C545.995 467.849 546.208 466.214 546.401 465.202C546.469 464.843 546.776 464.635 547.093 464.635C547.28 464.635 547.469 464.706 547.617 464.864C552.864 470.443 554.272 477.8 554.272 484.092C554.272 489.773 553.123 494.588 552.613 496.443C552.615 495.792 552.571 494.743 552.465 493.405C552.276 491.072 551.895 487.86 551.351 484.333C550.807 480.808 550.224 477.631 549.747 475.343C549.273 473.072 548.909 471.673 548.799 471.673C548.797 471.673 548.796 471.673 548.796 471.673C548.687 471.694 548.856 473.13 549.189 475.442C549.585 478.04 550.047 481.088 550.56 484.454C551.061 487.824 551.516 490.872 551.903 493.468C552.159 495.27 552.335 496.538 552.455 497.002C552.404 497.173 552.375 497.262 552.375 497.262" fill="#96CFAA"/>
<path d="M552.455 497.002C552.335 496.538 552.159 495.271 551.903 493.468C551.516 490.872 551.061 487.824 550.56 484.454C550.047 481.088 549.585 478.04 549.189 475.442C548.856 473.13 548.687 471.695 548.796 471.673C548.796 471.673 548.797 471.673 548.799 471.673C548.909 471.673 549.273 473.072 549.747 475.344C550.224 477.632 550.807 480.808 551.351 484.333C551.895 487.86 552.276 491.072 552.465 493.405C552.571 494.744 552.615 495.792 552.613 496.444C552.549 496.68 552.495 496.866 552.455 497.002Z" fill="#161C1E"/>
<path d="M588.227 425.556C588.227 425.556 605.741 413.294 603.975 396.844C603.912 396.266 603.231 395.992 602.8 396.381C600.257 398.676 593.384 406.336 588.227 425.556" fill="#BCE8CB"/>
<path d="M588.227 425.556C593.384 406.336 600.257 398.676 602.8 396.381C602.937 396.256 603.103 396.198 603.264 396.198C603.604 396.198 603.932 396.452 603.975 396.844C604.059 397.632 604.099 398.409 604.099 399.176C604.105 414.44 588.227 425.556 588.227 425.556Z" fill="#96CFAA"/>
<path d="M600.805 402.986C600.904 403.036 600.351 404.376 599.351 406.488C598.351 408.601 596.901 411.488 595.205 414.625C593.515 417.768 591.88 420.557 590.624 422.533C589.364 424.506 588.484 425.664 588.399 425.606C588.301 425.542 589.007 424.282 590.139 422.245C591.396 419.941 592.871 417.234 594.503 414.245C596.125 411.25 597.595 408.54 598.847 406.229C599.975 404.185 600.705 402.938 600.805 402.986Z" fill="#3F3D56"/>
<path d="M559.437 477.095C559.437 477.095 580.563 473.8 586.22 458.252C586.419 457.707 585.928 457.16 585.369 457.32C582.079 458.26 572.532 462.11 559.437 477.095Z" fill="#BCE8CB"/>
<path d="M559.437 477.095C572.532 462.11 582.079 458.26 585.369 457.32C585.437 457.3 585.504 457.291 585.568 457.291C585.955 457.291 586.265 457.617 586.265 458.002C586.265 458.083 586.251 458.168 586.22 458.252C581.269 471.86 564.469 476.081 560.353 476.922C559.936 477.008 559.648 477.059 559.517 477.081C559.465 477.091 559.437 477.095 559.437 477.095" fill="#96CFAA"/>
<path d="M580.671 462.372C580.739 462.459 579.651 463.417 577.821 464.874C575.995 466.332 573.421 468.283 570.519 470.355C567.615 472.431 564.92 474.217 562.921 475.436C560.921 476.653 559.623 477.304 559.571 477.214C559.511 477.114 560.7 476.295 562.612 474.962C564.756 473.447 567.272 471.669 570.053 469.704C572.829 467.729 575.344 465.944 577.483 464.421C579.397 463.083 580.604 462.284 580.671 462.372" fill="#3F3D56"/>
<path d="M539.287 515.969L533.124 557.442H571.525L566.547 515.969H539.287" fill="#365462"/>
<path d="M568.083 528.82C568.083 529.041 561.148 529.22 552.597 529.22C544.044 529.22 537.112 529.041 537.112 528.82C537.112 528.6 544.044 528.42 552.597 528.42C561.148 528.42 568.083 528.6 568.083 528.82Z" fill="#3F3D56"/>
<path d="M568.843 532.12C568.843 532.34 561.683 532.52 552.852 532.52C544.017 532.52 536.859 532.34 536.859 532.12C536.859 531.898 544.017 531.721 552.852 531.721C561.683 531.721 568.843 531.898 568.843 532.12Z" fill="#3F3D56"/>
<path d="M419.517 113.696C419.517 113.696 419.163 113.702 418.476 113.682C417.787 113.653 416.764 113.605 415.424 113.698C412.763 113.848 408.767 114.349 404.061 116.318C399.409 118.284 393.964 121.757 389.632 127.564C387.483 130.453 385.688 133.929 384.595 137.869C383.54 141.814 383.184 146.19 383.687 150.696C384.255 155.185 385.629 159.832 388.145 164.098C389.395 166.225 390.873 168.293 392.684 170.116C394.431 171.992 396.493 173.652 398.817 174.914C401.139 176.17 403.796 176.962 406.515 176.853C409.211 176.765 411.993 175.814 413.968 173.846C415.956 171.893 416.937 169.024 416.939 166.161C416.953 163.276 415.953 160.408 414.235 157.992C410.772 153.126 405.175 149.853 399.22 148.089C393.207 146.337 386.603 146.292 380.281 147.828C377.132 148.648 374.055 149.85 371.16 151.453C368.268 153.065 365.637 155.168 363.331 157.596C362.784 158.23 362.161 158.805 361.675 159.493L360.169 161.525C359.291 162.968 358.389 164.408 357.715 165.974C356.301 169.066 355.309 172.382 354.815 175.8C353.92 182.629 354.748 189.664 357.508 195.802C360.173 201.95 364.719 207.228 370.381 210.408C373.207 211.988 376.331 213.006 379.499 213.178C382.66 213.374 385.812 212.56 388.495 211.018C391.173 209.481 393.411 207.17 394.584 204.386C395.749 201.605 395.728 198.43 394.721 195.669C393.731 192.877 391.873 190.493 389.708 188.58C387.529 186.668 384.987 185.236 382.333 184.294C376.955 182.538 371.225 182.633 366.101 184.013C360.964 185.412 356.384 188.057 352.788 191.437C349.197 194.837 346.677 199.008 345.155 203.266C342.079 211.85 342.861 220.564 345.504 227.221C348.224 233.936 352.544 238.717 356.489 241.877C360.471 245.06 364.095 246.777 366.583 247.756C367.836 248.233 368.803 248.572 369.465 248.758C370.123 248.964 370.455 249.086 370.455 249.086C370.455 249.086 370.109 249.009 369.445 248.826C368.773 248.662 367.799 248.344 366.531 247.886C364.02 246.946 360.356 245.26 356.32 242.088C352.321 238.937 347.931 234.145 345.143 227.366C342.433 220.64 341.601 211.824 344.692 203.101C346.223 198.774 348.769 194.522 352.42 191.048C356.072 187.598 360.721 184.894 365.952 183.457C371.169 182.041 377.004 181.922 382.531 183.717C385.264 184.681 387.872 186.145 390.12 188.109C392.353 190.074 394.28 192.533 395.324 195.453C396.383 198.344 396.416 201.698 395.185 204.638C393.951 207.578 391.609 209.992 388.827 211.593C386.041 213.198 382.753 214.052 379.463 213.85C376.177 213.674 372.952 212.621 370.051 211.002C364.24 207.744 359.599 202.353 356.875 196.08C354.059 189.818 353.215 182.66 354.128 175.701C354.631 172.221 355.641 168.84 357.085 165.684C357.775 164.085 358.695 162.613 359.593 161.14L361.133 159.062C361.632 158.36 362.267 157.772 362.827 157.124C365.184 154.641 367.873 152.498 370.823 150.856C373.775 149.222 376.909 148 380.116 147.168C386.553 145.608 393.273 145.66 399.405 147.453C405.48 149.265 411.173 152.584 414.759 157.626C416.535 160.126 417.587 163.144 417.564 166.162C417.56 169.158 416.525 172.194 414.397 174.281C412.284 176.376 409.351 177.36 406.535 177.446C403.691 177.553 400.927 176.72 398.545 175.421C396.155 174.116 394.057 172.414 392.283 170.501C390.445 168.64 388.945 166.533 387.683 164.366C385.139 160.025 383.76 155.306 383.197 150.753C382.704 146.182 383.084 141.748 384.169 137.752C385.293 133.762 387.132 130.245 389.32 127.33C393.735 121.478 399.253 118.012 403.959 116.069C408.715 114.122 412.744 113.664 415.419 113.56C416.764 113.488 417.791 113.56 418.479 113.612C419.167 113.656 419.517 113.696 419.517 113.696" fill="#3F3D56"/>
<path d="M277.1 391.3H464.048V247.11H277.1V391.3Z" fill="#BCE8CB"/>
<path d="M277.1 247.111L311.631 279.317H495.408L464.048 247.111H277.1Z" fill="#BCE8CB"/>
<path d="M277.1 247.111C280.473 247.104 357.688 246.964 464.048 246.769H464.192L464.292 246.873C474.308 257.156 484.7 267.827 495.333 278.744L495.656 279.075L496.232 279.664H495.408C420.049 279.607 353.167 279.557 311.631 279.527H311.548L311.488 279.469C289.881 259.137 278.235 248.177 277.1 247.111C278.243 248.165 289.987 259.024 311.773 279.164L311.631 279.108C353.167 279.077 420.049 279.027 495.408 278.969L495.159 279.559L494.836 279.228C484.207 268.308 473.816 257.635 463.804 247.348L464.048 247.451C357.688 247.257 280.471 247.116 277.1 247.111" fill="#3F3D56"/>
<path d="M333.252 313.598C331.273 313.602 329.468 315.378 329.433 317.357C329.4 319.334 331.143 321.173 333.12 321.245C335.096 321.316 336.968 319.609 337.076 317.633C337.185 315.658 335.513 313.754 333.539 313.609" fill="#3F3D56"/>
<path d="M377.393 313.598C375.416 313.602 373.609 315.378 373.576 317.357C373.541 319.334 375.284 321.173 377.261 321.245C379.239 321.316 381.109 319.609 381.217 317.633C381.327 315.658 379.655 313.754 377.681 313.609" fill="#3F3D56"/>
<path d="M377.677 348.113C377.476 348.196 377.183 344.505 373.976 339.825C372.401 337.504 370.044 335.044 366.915 333.049C363.804 331.055 359.853 329.617 355.585 329.463C351.312 329.384 347.289 330.601 344.073 332.423C340.839 334.243 338.349 336.571 336.649 338.803C333.193 343.299 332.696 346.968 332.501 346.875C332.477 346.869 332.516 346.653 332.609 346.244C332.723 345.841 332.809 345.219 333.099 344.473C333.581 342.952 334.561 340.82 336.257 338.505C337.944 336.189 340.456 333.765 343.757 331.867C347.04 329.965 351.184 328.685 355.604 328.769C360.021 328.929 364.087 330.433 367.259 332.511C370.453 334.588 372.827 337.145 374.383 339.551C375.951 341.953 376.812 344.137 377.211 345.683C377.46 346.444 377.512 347.069 377.603 347.477C377.675 347.891 377.7 348.111 377.677 348.113" fill="#3F3D56"/>
<path d="M464.048 290.614H427.396C427.351 284.976 427.296 281.096 427.237 279.613C439.121 279.621 451.419 279.63 464.048 279.64V290.614" fill="#AFC6B6"/>
<path d="M464.048 279.64C451.419 279.63 439.121 279.621 427.237 279.613C427.233 279.5 427.228 279.401 427.224 279.317H464.048V279.64" fill="#151717"/>
<path d="M426.971 290.614H310.585L277.524 248.696L305.004 273.368C307.056 275.298 309.216 277.332 311.488 279.469L311.548 279.526H311.631C340.06 279.548 380.361 279.577 427.129 279.613C427.071 281.096 427.016 284.976 426.971 290.614" fill="#AFC6B6"/>
<path d="M427.129 279.613C380.361 279.577 340.06 279.548 311.631 279.527H311.548L311.488 279.469C309.216 277.332 307.056 275.299 305.004 273.368L311.631 279.317H427.143C427.139 279.401 427.133 279.5 427.129 279.613" fill="#151717"/>
<path d="M427.184 390.969C426.991 390.969 426.836 365.889 426.836 334.959C426.836 304.017 426.991 278.943 427.184 278.943C427.375 278.943 427.531 304.017 427.531 334.959C427.531 365.889 427.375 390.969 427.184 390.969Z" fill="#3F3D56"/>
<path d="M456.537 376.911H440.059V358.283H456.537V376.911Z" fill="#F8F8F9"/>
<path d="M277.1 247.111L238.72 279.317H277.1V247.111Z" fill="#BCE8CB"/>
<path d="M277.1 279.317H238.72L277.1 247.111V279.317Z" fill="#83A890"/>
<path d="M254.62 557.083H469.565V391.3H254.62V557.083Z" fill="#BCE8CB"/>
<path d="M469.565 557.083H254.62V391.3H469.565V423.468V452.285V557.083Z" fill="#96CFAA"/>
<path d="M415.711 555.914C415.52 555.914 415.364 518.96 415.364 473.388C415.364 427.797 415.52 390.852 415.711 390.852C415.904 390.852 416.059 427.797 416.059 473.388C416.059 518.96 415.904 555.914 415.711 555.914" fill="#3F3D56"/>
<path d="M451.34 537.977H434.863V519.349H451.34V537.977Z" fill="#F8F8F9"/>
<path d="M320.195 391.727V427.103H344.608V391.727H320.195Z" fill="#3F3D56"/>
<path d="M320.195 521.217V556.59H344.608V521.217H320.195Z" fill="#3F3D56"/>
<path d="M467.692 391.3C467.692 391.312 467.504 391.324 467.141 391.334C466.745 391.344 466.209 391.356 465.527 391.37C464.071 391.386 461.985 391.406 459.317 391.436C453.891 391.461 446.099 391.498 436.487 391.545C417.177 391.57 390.56 391.606 361.16 391.645C331.752 391.606 305.132 391.57 285.821 391.545C276.209 391.498 268.419 391.461 262.992 391.436C260.325 391.406 258.24 391.386 256.784 391.37C256.101 391.356 255.567 391.344 255.171 391.334C254.807 391.324 254.62 391.312 254.62 391.3C254.62 391.288 254.807 391.277 255.171 391.265C255.567 391.256 256.101 391.245 256.784 391.229C258.24 391.216 260.325 391.193 262.992 391.165C268.419 391.138 276.209 391.101 285.821 391.054C305.132 391.028 331.752 390.992 361.16 390.95C390.56 390.992 417.177 391.028 436.487 391.054C446.099 391.101 453.891 391.138 459.317 391.165C461.985 391.193 464.071 391.216 465.527 391.229C466.209 391.245 466.745 391.256 467.141 391.265C467.504 391.277 467.692 391.288 467.692 391.3Z" fill="#3F3D56"/>
<path d="M99.3202 104.265C97.774 103.885 90.325 102.055 75.9145 98.5133L76.0874 98.4866C70.9401 101.769 63.9677 104.419 55.8838 104.544C51.8625 104.529 47.6088 104.047 43.364 102.716C39.1234 101.395 34.9526 99.2039 31.163 96.2479C23.5802 90.3826 17.6765 80.9826 16.4016 70.1639C15.751 64.7893 16.1864 59.1386 17.8588 53.7279C19.5625 48.3333 22.501 43.22 26.4584 38.916C28.464 36.6413 30.827 34.7533 33.2369 33.0093C34.5026 32.2279 35.75 31.4159 37.0541 30.7293L39.0453 29.7719L40.0364 29.2946L41.0677 28.9173C46.5213 26.8026 52.3254 25.9839 57.8958 26.3546C63.4729 26.7133 68.814 28.2733 73.486 30.7319C78.1661 33.1853 82.177 36.5159 85.3276 40.2973C88.4849 44.0813 90.7806 48.3093 92.2412 52.5786C93.7 56.8533 94.3645 61.1533 94.403 65.216C94.451 73.3773 91.9005 80.3786 88.7964 85.4906L88.7984 85.2786C95.3068 97.0213 98.5948 102.955 99.3202 104.265C98.5697 102.969 95.1677 97.1013 88.4328 85.4853L88.3724 85.3813L88.4354 85.2733C91.462 80.1879 93.9281 73.2626 93.8364 65.2186C93.7765 61.2146 93.101 56.9853 91.6478 52.7853C90.1942 48.5906 87.9218 44.4413 84.8068 40.7346C81.6994 37.0266 77.75 33.7679 73.1505 31.3706C68.5593 28.9693 63.3177 27.4479 57.8464 27.1053C52.3802 26.7493 46.6921 27.5599 41.3478 29.6359L40.3374 30.0053L39.365 30.4746L37.4145 31.4146C36.1369 32.088 34.9145 32.8853 33.674 33.6506C31.313 35.3626 28.9964 37.2119 27.0306 39.4426C23.1505 43.6613 20.2688 48.6719 18.5953 53.9586C16.9526 59.2586 16.5188 64.8013 17.15 70.0733C18.3844 80.6839 24.153 89.9213 31.586 95.7093C35.301 98.6239 39.3921 100.793 43.5578 102.109C47.7281 103.435 51.9125 103.928 55.875 103.964C63.8401 103.881 70.7344 101.316 75.8516 98.1133L75.9338 98.0613L76.024 98.0853C90.3672 101.891 97.7828 103.857 99.3202 104.265Z" fill="#3F3D56"/>
<path d="M52.0443 48.0412L53.2828 67.5919C53.3839 69.1905 54.661 70.4625 56.2599 70.5572C57.947 70.6585 59.4162 69.4185 59.6016 67.7399L61.7724 48.0905C61.9364 46.6025 60.7599 45.3065 59.2631 45.3279L54.4943 45.3945C53.0708 45.4145 51.9547 46.6212 52.0443 48.0412" fill="#BCE8CB"/>
<path d="M61.4421 81.5544C60.6115 84.0557 57.9109 85.4091 55.4104 84.5798C52.9088 83.7491 51.5541 81.0491 52.3849 78.5478C53.215 76.0464 55.9161 74.6918 58.4166 75.5224C60.9182 76.3518 62.2724 79.0531 61.4421 81.5544Z" fill="#BCE8CB"/>
</g>
<defs>
<clipPath id="clip0_1959_25047">
<rect width="604.093" height="567.8" fill="white"/>
</clipPath>
</defs>
</svg>
