<svg width="179" height="179" viewBox="0 0 179 179" fill="none" xmlns="http://www.w3.org/2000/svg">
<g clip-path="url(#clip0_101_29)">
<path d="M26 111C28.2091 111 30 109.209 30 107C30 104.791 28.2091 103 26 103C23.7909 103 22 104.791 22 107C22 109.209 23.7909 111 26 111Z" fill="#F49320"/>
<path d="M46 111C48.2091 111 50 109.209 50 107C50 104.791 48.2091 103 46 103C43.7909 103 42 104.791 42 107C42 109.209 43.7909 111 46 111Z" fill="#F49320"/>
<path d="M59.37 65.672C58.9949 65.2971 58.4863 65.0864 57.956 65.0864C57.4257 65.0864 56.917 65.2971 56.542 65.672L46.224 76L43.122 72.762C42.7544 72.3796 42.2499 72.1588 41.7196 72.1483C41.1892 72.1378 40.6764 72.3384 40.294 72.706C39.9116 73.0736 39.6908 73.578 39.6803 74.1084C39.6698 74.6388 39.8704 75.1516 40.238 75.534L43.466 78.892C43.8099 79.2635 44.2257 79.5614 44.688 79.7676C45.1504 79.9739 45.6498 80.0842 46.156 80.092H46.222C46.7181 80.0936 47.2096 79.9967 47.6679 79.8068C48.1263 79.617 48.5424 79.338 48.892 78.986L59.37 68.5C59.7449 68.1249 59.9556 67.6163 59.9556 67.086C59.9556 66.5557 59.7449 66.0471 59.37 65.672V65.672Z" fill="#EBC026"/>
<path d="M55.8 81.032C55.5414 80.9853 55.2762 80.99 55.0194 81.0458C54.7626 81.1016 54.5194 81.2075 54.3036 81.3574C54.0877 81.5073 53.9036 81.6983 53.7616 81.9194C53.6196 82.1405 53.5225 82.3874 53.476 82.646L53.22 84.064C52.9705 85.4486 52.2423 86.7016 51.1628 87.6038C50.0832 88.5061 48.7209 89.0003 47.314 89H22.836L20.956 73H34C34.5304 73 35.0391 72.7893 35.4142 72.4142C35.7893 72.0391 36 71.5304 36 71C36 70.4696 35.7893 69.9609 35.4142 69.5858C35.0391 69.2107 34.5304 69 34 69H20.484L20.4 68.296C20.2276 66.8372 19.5261 65.4923 18.4284 64.5162C17.3306 63.5401 15.9129 63.0006 14.444 63H14C13.4696 63 12.9609 63.2107 12.5858 63.5858C12.2107 63.9609 12 64.4696 12 65C12 65.5304 12.2107 66.0391 12.5858 66.4142C12.9609 66.7893 13.4696 67 14 67H14.444C14.9339 67.0001 15.4067 67.1799 15.7727 67.5054C16.1388 67.8309 16.3727 68.2795 16.43 68.766L19.182 92.166C19.4677 94.5996 20.637 96.8436 22.4678 98.472C24.2987 100.1 26.6637 101 29.114 101H50C50.5304 101 51.0391 100.789 51.4142 100.414C51.7893 100.039 52 99.5304 52 99C52 98.4696 51.7893 97.9609 51.4142 97.5858C51.0391 97.2107 50.5304 97 50 97H29.114C27.873 97.0002 26.6625 96.6157 25.6492 95.8993C24.6359 95.1829 23.8697 94.17 23.456 93H47.314C49.6586 93.0001 51.9287 92.1765 53.7276 90.6729C55.5266 89.1693 56.7401 87.0814 57.156 84.774L57.412 83.354C57.5058 82.8324 57.3887 82.2948 57.0865 81.8594C56.7842 81.4241 56.3215 81.1265 55.8 81.032Z" fill="#E59245"/>
<path d="M28 84C30.7614 84 33 81.7614 33 79C33 76.2386 30.7614 74 28 74C25.2386 74 23 76.2386 23 79C23 81.7614 25.2386 84 28 84Z" fill="#04A54F"/>
<path d="M37.5 87C39.433 87 41 85.433 41 83.5C41 81.567 39.433 80 37.5 80C35.567 80 34 81.567 34 83.5C34 85.433 35.567 87 37.5 87Z" fill="#292F91"/>
<path d="M47 88C48.6569 88 50 86.6569 50 85C50 83.3431 48.6569 82 47 82C45.3431 82 44 83.3431 44 85C44 86.6569 45.3431 88 47 88Z" fill="#00B1F0"/>
</g>
<path d="M74.5717 96.53C74.5717 97.65 73.93 98.21 72.6467 98.21C71.3167 98.21 70.6517 97.65 70.6517 96.53V82.04C70.6517 80.1267 71.2234 78.7967 72.3667 78.05C73.51 77.3033 74.8284 76.93 76.3217 76.93H80.3117C81.175 76.93 81.6067 77.4783 81.6067 78.575C81.6534 79.6717 81.2217 80.22 80.3117 80.22H76.6017C75.7617 80.22 75.2134 80.3833 74.9567 80.71C74.7 81.0367 74.5717 81.4917 74.5717 82.075V96.53ZM89.8511 98C89.1278 98 88.4394 97.9067 87.7861 97.72C87.1328 97.51 86.5028 97.2183 85.8961 96.845V96.88C84.7528 96.1567 84.1811 94.8267 84.1811 92.89V91.175C84.1811 90.2183 84.3444 89.39 84.6711 88.69C85.0211 87.9667 85.4994 87.395 86.1061 86.975H86.0711C86.6544 86.5783 87.2728 86.2867 87.9261 86.1C88.5794 85.89 89.2094 85.785 89.8161 85.785H97.5511V82.53C97.5511 81.9467 97.3645 81.4217 96.9911 80.955C96.6411 80.465 96.0344 80.22 95.1711 80.22H91.0761C90.1894 80.22 89.5711 80.4417 89.2211 80.885C88.8944 81.305 88.7311 81.8067 88.7311 82.39V82.67C88.7311 83.8833 88.0778 84.49 86.7711 84.49C85.4644 84.49 84.8111 83.8833 84.8111 82.67V82.355C84.8111 81.3983 84.9744 80.5933 85.3011 79.94C85.6511 79.2867 86.1178 78.7383 86.7011 78.295H86.6661C87.2728 77.8983 87.9028 77.5717 88.5561 77.315C89.2328 77.0583 89.8744 76.93 90.4811 76.93H95.8011C96.3844 76.93 97.0028 77.0583 97.6561 77.315C98.3328 77.5717 98.9628 77.8983 99.5461 78.295H99.5111C100.118 78.7383 100.584 79.3217 100.911 80.045C101.238 80.745 101.401 81.5617 101.401 82.495V96.53C101.401 97.65 100.759 98.21 99.4761 98.21C99.2194 98.21 98.9744 98.1983 98.7411 98.175C98.5311 98.1517 98.3328 98.0933 98.1461 98C97.9828 97.8833 97.8428 97.7317 97.7261 97.545C97.6328 97.335 97.5861 97.0667 97.5861 96.74L97.5511 89.075H90.4811C89.9678 89.075 89.5711 89.1333 89.2911 89.25C89.0111 89.3667 88.7894 89.5533 88.6261 89.81C88.4394 90.2067 88.2994 90.5217 88.2061 90.755C88.1361 90.965 88.1011 91.21 88.1011 91.49V92.855C88.1011 93.4617 88.2761 93.9283 88.6261 94.255C88.9994 94.5583 89.6294 94.71 90.5161 94.71H94.4361C95.2994 94.71 95.7311 95.2583 95.7311 96.355C95.7311 96.8217 95.6261 97.2183 95.4161 97.545C95.2061 97.8483 94.8794 98 94.4361 98H89.8511ZM107.048 102.9C106.232 102.9 105.8 102.352 105.753 101.255C105.753 100.158 106.185 99.61 107.048 99.61H108.588C109.405 99.61 109.942 99.365 110.198 98.875L110.688 97.58L110.863 97.02L104.038 79.135V79.17C103.852 78.61 103.887 78.1317 104.143 77.735C104.423 77.3383 104.843 77.0467 105.403 76.86C105.823 76.7433 106.162 76.685 106.418 76.685C107.095 76.685 107.515 77.0817 107.678 77.875L110.443 84.77L112.788 90.51L116.533 77.945C116.743 77.105 117.233 76.685 118.003 76.685C118.19 76.685 118.493 76.7433 118.913 76.86C119.473 77.0233 119.87 77.2917 120.103 77.665C120.36 78.0383 120.418 78.4817 120.278 78.995C119.228 82.565 118.155 86.1583 117.058 89.775C115.985 93.3917 114.923 96.9733 113.873 100.52C113.757 100.777 113.57 101.033 113.313 101.29C113.08 101.57 112.765 101.827 112.368 102.06C111.972 102.317 111.482 102.515 110.898 102.655C110.315 102.818 109.638 102.9 108.868 102.9H107.048ZM134.458 76.93C135.064 76.93 135.683 77.0583 136.313 77.315C136.966 77.5717 137.596 77.8983 138.203 78.295H138.168C138.774 78.7383 139.241 79.3217 139.568 80.045C139.894 80.745 140.058 81.5617 140.058 82.495V92.435C140.058 94.3483 139.428 95.76 138.168 96.67C136.931 97.5567 135.694 98 134.458 98H128.858C128.251 98 127.633 97.895 127.003 97.685C126.373 97.475 125.754 97.1367 125.148 96.67C123.888 95.7833 123.258 94.3717 123.258 92.435V82.495C123.258 81.5617 123.421 80.745 123.748 80.045C124.074 79.3217 124.541 78.7383 125.148 78.295H125.113C125.696 77.8983 126.314 77.5717 126.968 77.315C127.621 77.0583 128.251 76.93 128.858 76.93H134.458ZM133.828 94.71C134.691 94.71 135.298 94.465 135.648 93.975C136.021 93.485 136.208 92.96 136.208 92.4V82.53C136.208 81.9467 136.021 81.4217 135.648 80.955C135.298 80.465 134.691 80.22 133.828 80.22H129.488C128.624 80.22 128.006 80.465 127.633 80.955C127.283 81.4217 127.108 81.9467 127.108 82.53V92.4C127.108 92.96 127.283 93.485 127.633 93.975C128.006 94.465 128.624 94.71 129.488 94.71H133.828ZM155.858 85.75C156.441 85.75 157.06 85.89 157.713 86.17C158.39 86.4267 159.02 86.7533 159.603 87.15H159.568C160.175 87.5933 160.641 88.165 160.968 88.865C161.295 89.565 161.458 90.405 161.458 91.385V92.435C161.458 94.3483 160.828 95.76 159.568 96.67C158.961 97.1367 158.343 97.475 157.713 97.685C157.083 97.895 156.465 98 155.858 98H149.908C149.301 98 148.683 97.895 148.053 97.685C147.423 97.475 146.805 97.1367 146.198 96.67C144.938 95.7833 144.308 94.3717 144.308 92.435V92.015C144.308 91.0117 144.95 90.5217 146.233 90.545C147.54 90.545 148.193 91.035 148.193 92.015V92.4C148.193 92.96 148.368 93.485 148.718 93.975C149.068 94.465 149.686 94.71 150.573 94.71H155.193C156.08 94.71 156.698 94.465 157.048 93.975C157.398 93.485 157.573 92.96 157.573 92.4V91.42C157.573 91.1167 157.526 90.825 157.433 90.545C157.363 90.265 157.235 90.02 157.048 89.81C156.861 89.5767 156.616 89.39 156.313 89.25C156.01 89.11 155.636 89.04 155.193 89.04H150.083C148.893 89.04 147.645 88.62 146.338 87.78C145.101 86.9867 144.483 85.6217 144.483 83.685V82.495C144.483 81.5617 144.646 80.745 144.973 80.045C145.3 79.3217 145.766 78.7383 146.373 78.295H146.338C146.921 77.8983 147.54 77.5717 148.193 77.315C148.846 77.0583 149.476 76.93 150.083 76.93H155.683C156.29 76.93 156.908 77.0583 157.538 77.315C158.191 77.5717 158.821 77.8983 159.428 78.295H159.393C160 78.7383 160.466 79.3217 160.793 80.045C161.12 80.745 161.283 81.5617 161.283 82.495V82.81C161.283 83.3 161.12 83.6617 160.793 83.895C160.466 84.105 159.988 84.2217 159.358 84.245C158.075 84.2683 157.433 83.79 157.433 82.81V82.53C157.433 81.9467 157.246 81.4217 156.873 80.955C156.523 80.465 155.916 80.22 155.053 80.22H150.713C149.85 80.22 149.231 80.465 148.858 80.955C148.508 81.4217 148.333 81.9467 148.333 82.53V83.37C148.333 83.9767 148.508 84.525 148.858 85.015C149.231 85.505 149.85 85.75 150.713 85.75H155.858Z" fill="#272643"/>
<path d="M165.807 96C172.307 92.4598 152.973 111.67 119.307 115.5C97.2428 118.01 74.6536 106.928 64.9329 97.1865C64.0842 96.3359 63.4048 95.7735 64.8067 96.6109C81.4722 106.566 121.911 119.907 165.807 96Z" fill="#F49320"/>
<path d="M64.8067 96.6109C81.4722 106.566 121.911 119.907 165.807 96C172.307 92.4598 152.973 111.67 119.307 115.5C97.2428 118.01 74.6536 106.928 64.9329 97.1865M64.8067 96.6109L64.9329 97.1865M64.8067 96.6109C63.4048 95.7735 64.0842 96.3359 64.9329 97.1865" stroke="#F49320"/>
<defs>
<clipPath id="clip0_101_29">
<rect width="48" height="48" fill="white" transform="translate(12 63)"/>
</clipPath>
</defs>
</svg>
