<svg width="156" height="54" viewBox="0 0 156 54" fill="none" xmlns="http://www.w3.org/2000/svg">
<g clip-path="url(#clip0_13_34)">
<path d="M14 48C16.2091 48 18 46.2091 18 44C18 41.7909 16.2091 40 14 40C11.7909 40 10 41.7909 10 44C10 46.2091 11.7909 48 14 48Z" fill="#F49320"/>
<path d="M34 48C36.2091 48 38 46.2091 38 44C38 41.7909 36.2091 40 34 40C31.7909 40 30 41.7909 30 44C30 46.2091 31.7909 48 34 48Z" fill="#F49320"/>
<path d="M47.37 2.672C46.9949 2.29706 46.4863 2.08643 45.956 2.08643C45.4257 2.08643 44.917 2.29706 44.542 2.672L34.224 13L31.122 9.762C30.7544 9.37956 30.2499 9.1588 29.7196 9.1483C29.1892 9.1378 28.6764 9.33841 28.294 9.706C27.9116 10.0736 27.6908 10.578 27.6803 11.1084C27.6698 11.6388 27.8704 12.1516 28.238 12.534L31.466 15.892C31.8099 16.2635 32.2257 16.5614 32.688 16.7676C33.1504 16.9739 33.6498 17.0842 34.156 17.092H34.222C34.7181 17.0936 35.2096 16.9967 35.6679 16.8068C36.1263 16.617 36.5424 16.338 36.892 15.986L47.37 5.5C47.7449 5.12494 47.9556 4.61633 47.9556 4.086C47.9556 3.55567 47.7449 3.04705 47.37 2.672Z" fill="#EBC026"/>
<path d="M43.8 18.032C43.5414 17.9853 43.2762 17.99 43.0194 18.0458C42.7626 18.1017 42.5194 18.2075 42.3036 18.3574C42.0877 18.5073 41.9036 18.6983 41.7616 18.9194C41.6196 19.1405 41.5225 19.3874 41.476 19.646L41.22 21.064C40.9705 22.4486 40.2423 23.7016 39.1628 24.6038C38.0832 25.5061 36.7209 26.0003 35.314 26H10.836L8.956 10H22C22.5304 10 23.0391 9.78929 23.4142 9.41421C23.7893 9.03914 24 8.53043 24 8C24 7.46957 23.7893 6.96086 23.4142 6.58579C23.0391 6.21071 22.5304 6 22 6H8.484L8.4 5.296C8.22764 3.8372 7.52612 2.49231 6.42838 1.51621C5.33063 0.540109 3.91295 0.000625673 2.444 0L2 0C1.46957 0 0.960859 0.210714 0.585786 0.585786C0.210714 0.960859 0 1.46957 0 2C0 2.53043 0.210714 3.03914 0.585786 3.41421C0.960859 3.78929 1.46957 4 2 4H2.444C2.93387 4.00006 3.40667 4.17991 3.77274 4.50543C4.13881 4.83095 4.37269 5.2795 4.43 5.766L7.182 29.166C7.4677 31.5996 8.63696 33.8436 10.4678 35.472C12.2987 37.1005 14.6637 38.0001 17.114 38H38C38.5304 38 39.0391 37.7893 39.4142 37.4142C39.7893 37.0391 40 36.5304 40 36C40 35.4696 39.7893 34.9609 39.4142 34.5858C39.0391 34.2107 38.5304 34 38 34H17.114C15.873 34.0002 14.6625 33.6157 13.6492 32.8993C12.6359 32.1829 11.8697 31.17 11.456 30H35.314C37.6586 30.0001 39.9287 29.1765 41.7276 27.6729C43.5266 26.1693 44.7401 24.0814 45.156 21.774L45.412 20.354C45.5058 19.8324 45.3887 19.2948 45.0865 18.8594C44.7842 18.4241 44.3215 18.1265 43.8 18.032Z" fill="#E59245"/>
<path d="M16 21C18.7614 21 21 18.7614 21 16C21 13.2386 18.7614 11 16 11C13.2386 11 11 13.2386 11 16C11 18.7614 13.2386 21 16 21Z" fill="#04A54F"/>
<path d="M25.5 24C27.433 24 29 22.433 29 20.5C29 18.567 27.433 17 25.5 17C23.567 17 22 18.567 22 20.5C22 22.433 23.567 24 25.5 24Z" fill="#292F91"/>
<path d="M35 25C36.6569 25 38 23.6569 38 22C38 20.3431 36.6569 19 35 19C33.3431 19 32 20.3431 32 22C32 23.6569 33.3431 25 35 25Z" fill="#00B1F0"/>
</g>
<path d="M62.5717 33.53C62.5717 34.65 61.93 35.21 60.6467 35.21C59.3167 35.21 58.6517 34.65 58.6517 33.53V19.04C58.6517 17.1267 59.2234 15.7967 60.3667 15.05C61.51 14.3033 62.8284 13.93 64.3217 13.93H68.3117C69.175 13.93 69.6067 14.4783 69.6067 15.575C69.6534 16.6717 69.2217 17.22 68.3117 17.22H64.6017C63.7617 17.22 63.2134 17.3833 62.9567 17.71C62.7 18.0367 62.5717 18.4917 62.5717 19.075V33.53ZM77.8511 35C77.1278 35 76.4394 34.9067 75.7861 34.72C75.1328 34.51 74.5028 34.2183 73.8961 33.845V33.88C72.7528 33.1567 72.1811 31.8267 72.1811 29.89V28.175C72.1811 27.2183 72.3444 26.39 72.6711 25.69C73.0211 24.9667 73.4994 24.395 74.1061 23.975H74.0711C74.6544 23.5783 75.2728 23.2867 75.9261 23.1C76.5794 22.89 77.2094 22.785 77.8161 22.785H85.5511V19.53C85.5511 18.9467 85.3645 18.4217 84.9911 17.955C84.6411 17.465 84.0344 17.22 83.1711 17.22H79.0761C78.1894 17.22 77.5711 17.4417 77.2211 17.885C76.8944 18.305 76.7311 18.8067 76.7311 19.39V19.67C76.7311 20.8833 76.0778 21.49 74.7711 21.49C73.4644 21.49 72.8111 20.8833 72.8111 19.67V19.355C72.8111 18.3983 72.9744 17.5933 73.3011 16.94C73.6511 16.2867 74.1178 15.7383 74.7011 15.295H74.6661C75.2728 14.8983 75.9028 14.5717 76.5561 14.315C77.2328 14.0583 77.8744 13.93 78.4811 13.93H83.8011C84.3844 13.93 85.0028 14.0583 85.6561 14.315C86.3328 14.5717 86.9628 14.8983 87.5461 15.295H87.5111C88.1178 15.7383 88.5845 16.3217 88.9111 17.045C89.2378 17.745 89.4011 18.5617 89.4011 19.495V33.53C89.4011 34.65 88.7595 35.21 87.4761 35.21C87.2194 35.21 86.9744 35.1983 86.7411 35.175C86.5311 35.1517 86.3328 35.0933 86.1461 35C85.9828 34.8833 85.8428 34.7317 85.7261 34.545C85.6328 34.335 85.5861 34.0667 85.5861 33.74L85.5511 26.075H78.4811C77.9678 26.075 77.5711 26.1333 77.2911 26.25C77.0111 26.3667 76.7894 26.5533 76.6261 26.81C76.4394 27.2067 76.2994 27.5217 76.2061 27.755C76.1361 27.965 76.1011 28.21 76.1011 28.49V29.855C76.1011 30.4617 76.2761 30.9283 76.6261 31.255C76.9994 31.5583 77.6294 31.71 78.5161 31.71H82.4361C83.2994 31.71 83.7311 32.2583 83.7311 33.355C83.7311 33.8217 83.6261 34.2183 83.4161 34.545C83.2061 34.8483 82.8794 35 82.4361 35H77.8511ZM95.0484 39.9C94.2318 39.9 93.8001 39.3517 93.7534 38.255C93.7534 37.1583 94.1851 36.61 95.0484 36.61H96.5884C97.4051 36.61 97.9418 36.365 98.1984 35.875L98.6884 34.58L98.8634 34.02L92.0384 16.135V16.17C91.8518 15.61 91.8868 15.1317 92.1434 14.735C92.4234 14.3383 92.8434 14.0467 93.4034 13.86C93.8234 13.7433 94.1618 13.685 94.4184 13.685C95.0951 13.685 95.5151 14.0817 95.6784 14.875L98.4434 21.77L100.788 27.51L104.533 14.945C104.743 14.105 105.233 13.685 106.003 13.685C106.19 13.685 106.493 13.7433 106.913 13.86C107.473 14.0233 107.87 14.2917 108.103 14.665C108.36 15.0383 108.418 15.4817 108.278 15.995C107.228 19.565 106.155 23.1583 105.058 26.775C103.985 30.3917 102.923 33.9733 101.873 37.52C101.757 37.7767 101.57 38.0333 101.313 38.29C101.08 38.57 100.765 38.8267 100.368 39.06C99.9718 39.3167 99.4818 39.515 98.8984 39.655C98.3151 39.8183 97.6384 39.9 96.8684 39.9H95.0484ZM122.458 13.93C123.064 13.93 123.683 14.0583 124.313 14.315C124.966 14.5717 125.596 14.8983 126.203 15.295H126.168C126.774 15.7383 127.241 16.3217 127.568 17.045C127.894 17.745 128.058 18.5617 128.058 19.495V29.435C128.058 31.3483 127.428 32.76 126.168 33.67C124.931 34.5567 123.694 35 122.458 35H116.858C116.251 35 115.633 34.895 115.003 34.685C114.373 34.475 113.754 34.1367 113.148 33.67C111.888 32.7833 111.258 31.3717 111.258 29.435V19.495C111.258 18.5617 111.421 17.745 111.748 17.045C112.074 16.3217 112.541 15.7383 113.148 15.295H113.113C113.696 14.8983 114.314 14.5717 114.968 14.315C115.621 14.0583 116.251 13.93 116.858 13.93H122.458ZM121.828 31.71C122.691 31.71 123.298 31.465 123.648 30.975C124.021 30.485 124.208 29.96 124.208 29.4V19.53C124.208 18.9467 124.021 18.4217 123.648 17.955C123.298 17.465 122.691 17.22 121.828 17.22H117.488C116.624 17.22 116.006 17.465 115.633 17.955C115.283 18.4217 115.108 18.9467 115.108 19.53V29.4C115.108 29.96 115.283 30.485 115.633 30.975C116.006 31.465 116.624 31.71 117.488 31.71H121.828ZM143.858 22.75C144.441 22.75 145.06 22.89 145.713 23.17C146.39 23.4267 147.02 23.7533 147.603 24.15H147.568C148.175 24.5933 148.641 25.165 148.968 25.865C149.295 26.565 149.458 27.405 149.458 28.385V29.435C149.458 31.3483 148.828 32.76 147.568 33.67C146.961 34.1367 146.343 34.475 145.713 34.685C145.083 34.895 144.465 35 143.858 35H137.908C137.301 35 136.683 34.895 136.053 34.685C135.423 34.475 134.805 34.1367 134.198 33.67C132.938 32.7833 132.308 31.3717 132.308 29.435V29.015C132.308 28.0117 132.95 27.5217 134.233 27.545C135.54 27.545 136.193 28.035 136.193 29.015V29.4C136.193 29.96 136.368 30.485 136.718 30.975C137.068 31.465 137.686 31.71 138.573 31.71H143.193C144.08 31.71 144.698 31.465 145.048 30.975C145.398 30.485 145.573 29.96 145.573 29.4V28.42C145.573 28.1167 145.526 27.825 145.433 27.545C145.363 27.265 145.235 27.02 145.048 26.81C144.861 26.5767 144.616 26.39 144.313 26.25C144.01 26.11 143.636 26.04 143.193 26.04H138.083C136.893 26.04 135.645 25.62 134.338 24.78C133.101 23.9867 132.483 22.6217 132.483 20.685V19.495C132.483 18.5617 132.646 17.745 132.973 17.045C133.3 16.3217 133.766 15.7383 134.373 15.295H134.338C134.921 14.8983 135.54 14.5717 136.193 14.315C136.846 14.0583 137.476 13.93 138.083 13.93H143.683C144.29 13.93 144.908 14.0583 145.538 14.315C146.191 14.5717 146.821 14.8983 147.428 15.295H147.393C148 15.7383 148.466 16.3217 148.793 17.045C149.12 17.745 149.283 18.5617 149.283 19.495V19.81C149.283 20.3 149.12 20.6617 148.793 20.895C148.466 21.105 147.988 21.2217 147.358 21.245C146.075 21.2683 145.433 20.79 145.433 19.81V19.53C145.433 18.9467 145.246 18.4217 144.873 17.955C144.523 17.465 143.916 17.22 143.053 17.22H138.713C137.85 17.22 137.231 17.465 136.858 17.955C136.508 18.4217 136.333 18.9467 136.333 19.53V20.37C136.333 20.9767 136.508 21.525 136.858 22.015C137.231 22.505 137.85 22.75 138.713 22.75H143.858Z" fill="#272643"/>
<path d="M153.807 33C160.307 29.4598 140.973 48.6699 107.307 52.5C85.2428 55.0102 62.6536 43.9283 52.9329 34.1865C52.0842 33.3359 51.4048 32.7735 52.8067 33.6109C69.4722 43.5658 109.911 56.9074 153.807 33Z" fill="#F49320"/>
<path d="M52.8067 33.6109C69.4722 43.5658 109.911 56.9074 153.807 33C160.307 29.4598 140.973 48.6699 107.307 52.5C85.2428 55.0102 62.6536 43.9283 52.9329 34.1865M52.8067 33.6109L52.9329 34.1865M52.8067 33.6109C51.4048 32.7735 52.0842 33.3359 52.9329 34.1865" stroke="#F49320"/>
<defs>
<clipPath id="clip0_13_34">
<rect width="48" height="48" fill="white"/>
</clipPath>
</defs>
</svg>
