<svg width="48" height="48" viewBox="0 0 48 48" fill="none" xmlns="http://www.w3.org/2000/svg">
<g clip-path="url(#clip0_13_4)">
<path d="M14 48C16.2091 48 18 46.2091 18 44C18 41.7909 16.2091 40 14 40C11.7909 40 10 41.7909 10 44C10 46.2091 11.7909 48 14 48Z" fill="#F49320"/>
<path d="M34 48C36.2091 48 38 46.2091 38 44C38 41.7909 36.2091 40 34 40C31.7909 40 30 41.7909 30 44C30 46.2091 31.7909 48 34 48Z" fill="#F49320"/>
<path d="M47.37 2.672C46.9949 2.29706 46.4863 2.08643 45.956 2.08643C45.4257 2.08643 44.917 2.29706 44.542 2.672L34.224 13L31.122 9.762C30.7544 9.37956 30.2499 9.1588 29.7196 9.1483C29.1892 9.1378 28.6764 9.33841 28.294 9.706C27.9116 10.0736 27.6908 10.578 27.6803 11.1084C27.6698 11.6388 27.8704 12.1516 28.238 12.534L31.466 15.892C31.8099 16.2635 32.2257 16.5614 32.688 16.7676C33.1504 16.9739 33.6498 17.0842 34.156 17.092H34.222C34.7181 17.0936 35.2096 16.9967 35.6679 16.8068C36.1263 16.617 36.5424 16.338 36.892 15.986L47.37 5.5C47.7449 5.12494 47.9556 4.61633 47.9556 4.086C47.9556 3.55567 47.7449 3.04705 47.37 2.672V2.672Z" fill="#EBC026"/>
<path d="M43.8 18.032C43.5414 17.9853 43.2762 17.99 43.0194 18.0458C42.7626 18.1016 42.5194 18.2075 42.3036 18.3574C42.0877 18.5073 41.9036 18.6983 41.7616 18.9194C41.6196 19.1405 41.5225 19.3874 41.476 19.646L41.22 21.064C40.9705 22.4486 40.2423 23.7016 39.1628 24.6038C38.0832 25.5061 36.7209 26.0003 35.314 26H10.836L8.956 10H22C22.5304 10 23.0391 9.78929 23.4142 9.41421C23.7893 9.03914 24 8.53043 24 8C24 7.46957 23.7893 6.96086 23.4142 6.58579C23.0391 6.21071 22.5304 6 22 6H8.484L8.4 5.296C8.22764 3.8372 7.52612 2.49231 6.42838 1.51621C5.33063 0.540109 3.91295 0.000625673 2.444 0L2 0C1.46957 0 0.960859 0.210714 0.585786 0.585786C0.210714 0.960859 0 1.46957 0 2C0 2.53043 0.210714 3.03914 0.585786 3.41421C0.960859 3.78929 1.46957 4 2 4H2.444C2.93387 4.00006 3.40667 4.17991 3.77274 4.50543C4.13881 4.83095 4.37269 5.2795 4.43 5.766L7.182 29.166C7.4677 31.5996 8.63696 33.8436 10.4678 35.472C12.2987 37.1005 14.6637 38.0001 17.114 38H38C38.5304 38 39.0391 37.7893 39.4142 37.4142C39.7893 37.0391 40 36.5304 40 36C40 35.4696 39.7893 34.9609 39.4142 34.5858C39.0391 34.2107 38.5304 34 38 34H17.114C15.873 34.0002 14.6625 33.6157 13.6492 32.8993C12.6359 32.1829 11.8697 31.17 11.456 30H35.314C37.6586 30.0001 39.9287 29.1765 41.7276 27.6729C43.5266 26.1693 44.7401 24.0814 45.156 21.774L45.412 20.354C45.5058 19.8324 45.3887 19.2948 45.0865 18.8594C44.7842 18.4241 44.3215 18.1265 43.8 18.032Z" fill="#E59245"/>
<path d="M16 21C18.7614 21 21 18.7614 21 16C21 13.2386 18.7614 11 16 11C13.2386 11 11 13.2386 11 16C11 18.7614 13.2386 21 16 21Z" fill="#04A54F"/>
<path d="M25.5 24C27.433 24 29 22.433 29 20.5C29 18.567 27.433 17 25.5 17C23.567 17 22 18.567 22 20.5C22 22.433 23.567 24 25.5 24Z" fill="#292F91"/>
<path d="M35 25C36.6569 25 38 23.6569 38 22C38 20.3431 36.6569 19 35 19C33.3431 19 32 20.3431 32 22C32 23.6569 33.3431 25 35 25Z" fill="#00B1F0"/>
</g>
<defs>
<clipPath id="clip0_13_4">
<rect width="48" height="48" fill="white"/>
</clipPath>
</defs>
</svg>
